<mxfile host="Electron" agent="Mozilla/5.0 (Windows NT 10.0; Win64; x64) AppleWebKit/537.36 (KHTML, like Gecko) draw.io/24.7.17 Chrome/128.0.6613.36 Electron/32.0.1 Safari/537.36" version="24.7.17" pages="2">
  <diagram name="Page-1" id="K5Bs7HOtZ8vsk7viCPao">
    <mxGraphModel dx="1434" dy="878" grid="1" gridSize="10" guides="1" tooltips="1" connect="1" arrows="1" fold="1" page="1" pageScale="1" pageWidth="850" pageHeight="1100" math="0" shadow="0">
      <root>
        <mxCell id="0" />
        <mxCell id="1" parent="0" />
        <mxCell id="cbfVG_8tGOT3WDW3tT6j-1" value="kumba_construction" style="shape=table;startSize=40;container=1;collapsible=1;childLayout=tableLayout;fixedRows=1;rowLines=0;fontStyle=1;align=center;resizeLast=1;html=1;fillColor=default;" vertex="1" parent="1">
          <mxGeometry x="320" y="200" width="230" height="980" as="geometry" />
        </mxCell>
        <mxCell id="cbfVG_8tGOT3WDW3tT6j-2" value="" style="shape=tableRow;horizontal=0;startSize=0;swimlaneHead=0;swimlaneBody=0;fillColor=none;collapsible=0;dropTarget=0;points=[[0,0.5],[1,0.5]];portConstraint=eastwest;top=0;left=0;right=0;bottom=1;" vertex="1" parent="cbfVG_8tGOT3WDW3tT6j-1">
          <mxGeometry y="40" width="230" height="30" as="geometry" />
        </mxCell>
        <mxCell id="cbfVG_8tGOT3WDW3tT6j-3" value="" style="shape=partialRectangle;connectable=0;fillColor=none;top=0;left=0;bottom=0;right=0;fontStyle=1;overflow=hidden;whiteSpace=wrap;html=1;fontColor=#ffffff;strokeColor=#314354;" vertex="1" parent="cbfVG_8tGOT3WDW3tT6j-2">
          <mxGeometry width="30" height="30" as="geometry">
            <mxRectangle width="30" height="30" as="alternateBounds" />
          </mxGeometry>
        </mxCell>
        <mxCell id="cbfVG_8tGOT3WDW3tT6j-4" value="&lt;span style=&quot;color: rgb(204, 204, 204); font-family: Consolas, &amp;quot;Courier New&amp;quot;, monospace; font-size: 14px; font-weight: 400; white-space: pre;&quot;&gt;ProjectID&lt;/span&gt;" style="shape=partialRectangle;connectable=0;top=0;left=0;bottom=0;right=0;align=left;spacingLeft=6;fontStyle=5;overflow=hidden;whiteSpace=wrap;html=1;fillColor=#647687;fontColor=#ffffff;strokeColor=#314354;" vertex="1" parent="cbfVG_8tGOT3WDW3tT6j-2">
          <mxGeometry x="30" width="200" height="30" as="geometry">
            <mxRectangle width="200" height="30" as="alternateBounds" />
          </mxGeometry>
        </mxCell>
        <mxCell id="cbfVG_8tGOT3WDW3tT6j-5" value="" style="shape=tableRow;horizontal=0;startSize=0;swimlaneHead=0;swimlaneBody=0;fillColor=none;collapsible=0;dropTarget=0;points=[[0,0.5],[1,0.5]];portConstraint=eastwest;top=0;left=0;right=0;bottom=0;" vertex="1" parent="cbfVG_8tGOT3WDW3tT6j-1">
          <mxGeometry y="70" width="230" height="30" as="geometry" />
        </mxCell>
        <mxCell id="cbfVG_8tGOT3WDW3tT6j-6" value="" style="shape=partialRectangle;connectable=0;fillColor=none;top=0;left=0;bottom=0;right=0;editable=1;overflow=hidden;whiteSpace=wrap;html=1;fontColor=#ffffff;strokeColor=#3700CC;" vertex="1" parent="cbfVG_8tGOT3WDW3tT6j-5">
          <mxGeometry width="30" height="30" as="geometry">
            <mxRectangle width="30" height="30" as="alternateBounds" />
          </mxGeometry>
        </mxCell>
        <mxCell id="cbfVG_8tGOT3WDW3tT6j-7" value="&lt;span style=&quot;color: rgb(204, 204, 204); font-family: Consolas, &amp;quot;Courier New&amp;quot;, monospace; font-size: 14px; white-space: pre;&quot;&gt;ProjectName&lt;/span&gt;" style="shape=partialRectangle;connectable=0;fillColor=#647687;top=0;left=0;bottom=0;right=0;align=left;spacingLeft=6;overflow=hidden;whiteSpace=wrap;html=1;fontColor=#ffffff;strokeColor=#314354;" vertex="1" parent="cbfVG_8tGOT3WDW3tT6j-5">
          <mxGeometry x="30" width="200" height="30" as="geometry">
            <mxRectangle width="200" height="30" as="alternateBounds" />
          </mxGeometry>
        </mxCell>
        <mxCell id="cbfVG_8tGOT3WDW3tT6j-8" value="" style="shape=tableRow;horizontal=0;startSize=0;swimlaneHead=0;swimlaneBody=0;fillColor=none;collapsible=0;dropTarget=0;points=[[0,0.5],[1,0.5]];portConstraint=eastwest;top=0;left=0;right=0;bottom=0;" vertex="1" parent="cbfVG_8tGOT3WDW3tT6j-1">
          <mxGeometry y="100" width="230" height="40" as="geometry" />
        </mxCell>
        <mxCell id="cbfVG_8tGOT3WDW3tT6j-9" value="" style="shape=partialRectangle;connectable=0;fillColor=#647687;top=0;left=0;bottom=0;right=0;editable=1;overflow=hidden;whiteSpace=wrap;html=1;fontColor=#ffffff;strokeColor=#314354;" vertex="1" parent="cbfVG_8tGOT3WDW3tT6j-8">
          <mxGeometry width="30" height="40" as="geometry">
            <mxRectangle width="30" height="40" as="alternateBounds" />
          </mxGeometry>
        </mxCell>
        <mxCell id="cbfVG_8tGOT3WDW3tT6j-10" value="&lt;span style=&quot;color: rgb(204, 204, 204); font-family: Consolas, &amp;quot;Courier New&amp;quot;, monospace; font-size: 14px; white-space: pre;&quot;&gt;ClientName&lt;/span&gt;" style="shape=partialRectangle;connectable=0;fillColor=#1ba1e2;top=0;left=0;bottom=0;right=0;align=left;spacingLeft=6;overflow=hidden;whiteSpace=wrap;html=1;fontColor=#ffffff;strokeColor=#006EAF;" vertex="1" parent="cbfVG_8tGOT3WDW3tT6j-8">
          <mxGeometry x="30" width="200" height="40" as="geometry">
            <mxRectangle width="200" height="40" as="alternateBounds" />
          </mxGeometry>
        </mxCell>
        <mxCell id="cbfVG_8tGOT3WDW3tT6j-11" value="" style="shape=tableRow;horizontal=0;startSize=0;swimlaneHead=0;swimlaneBody=0;fillColor=none;collapsible=0;dropTarget=0;points=[[0,0.5],[1,0.5]];portConstraint=eastwest;top=0;left=0;right=0;bottom=0;" vertex="1" parent="cbfVG_8tGOT3WDW3tT6j-1">
          <mxGeometry y="140" width="230" height="30" as="geometry" />
        </mxCell>
        <mxCell id="cbfVG_8tGOT3WDW3tT6j-12" value="" style="shape=partialRectangle;connectable=0;fillColor=#647687;top=0;left=0;bottom=0;right=0;editable=1;overflow=hidden;whiteSpace=wrap;html=1;fontColor=#ffffff;strokeColor=#314354;" vertex="1" parent="cbfVG_8tGOT3WDW3tT6j-11">
          <mxGeometry width="30" height="30" as="geometry">
            <mxRectangle width="30" height="30" as="alternateBounds" />
          </mxGeometry>
        </mxCell>
        <mxCell id="cbfVG_8tGOT3WDW3tT6j-13" value="&lt;span style=&quot;color: rgb(204, 204, 204); font-family: Consolas, &amp;quot;Courier New&amp;quot;, monospace; font-size: 14px; white-space: pre;&quot;&gt;ProjectType&lt;/span&gt;" style="shape=partialRectangle;connectable=0;fillColor=#d80073;top=0;left=0;bottom=0;right=0;align=left;spacingLeft=6;overflow=hidden;whiteSpace=wrap;html=1;fontColor=#ffffff;strokeColor=#A50040;" vertex="1" parent="cbfVG_8tGOT3WDW3tT6j-11">
          <mxGeometry x="30" width="200" height="30" as="geometry">
            <mxRectangle width="200" height="30" as="alternateBounds" />
          </mxGeometry>
        </mxCell>
        <mxCell id="cbfVG_8tGOT3WDW3tT6j-56" style="shape=tableRow;horizontal=0;startSize=0;swimlaneHead=0;swimlaneBody=0;fillColor=none;collapsible=0;dropTarget=0;points=[[0,0.5],[1,0.5]];portConstraint=eastwest;top=0;left=0;right=0;bottom=0;" vertex="1" parent="cbfVG_8tGOT3WDW3tT6j-1">
          <mxGeometry y="170" width="230" height="30" as="geometry" />
        </mxCell>
        <mxCell id="cbfVG_8tGOT3WDW3tT6j-57" style="shape=partialRectangle;connectable=0;fillColor=none;top=0;left=0;bottom=0;right=0;editable=1;overflow=hidden;whiteSpace=wrap;html=1;" vertex="1" parent="cbfVG_8tGOT3WDW3tT6j-56">
          <mxGeometry width="30" height="30" as="geometry">
            <mxRectangle width="30" height="30" as="alternateBounds" />
          </mxGeometry>
        </mxCell>
        <mxCell id="cbfVG_8tGOT3WDW3tT6j-58" value="&lt;span style=&quot;color: rgb(204, 204, 204); font-family: Consolas, &amp;quot;Courier New&amp;quot;, monospace; font-size: 14px; white-space: pre;&quot;&gt;ProjectStatus&lt;/span&gt;" style="shape=partialRectangle;connectable=0;fillColor=#647687;top=0;left=0;bottom=0;right=0;align=left;spacingLeft=6;overflow=hidden;whiteSpace=wrap;html=1;fontColor=#ffffff;strokeColor=#314354;" vertex="1" parent="cbfVG_8tGOT3WDW3tT6j-56">
          <mxGeometry x="30" width="200" height="30" as="geometry">
            <mxRectangle width="200" height="30" as="alternateBounds" />
          </mxGeometry>
        </mxCell>
        <mxCell id="cbfVG_8tGOT3WDW3tT6j-53" style="shape=tableRow;horizontal=0;startSize=0;swimlaneHead=0;swimlaneBody=0;fillColor=none;collapsible=0;dropTarget=0;points=[[0,0.5],[1,0.5]];portConstraint=eastwest;top=0;left=0;right=0;bottom=0;" vertex="1" parent="cbfVG_8tGOT3WDW3tT6j-1">
          <mxGeometry y="200" width="230" height="30" as="geometry" />
        </mxCell>
        <mxCell id="cbfVG_8tGOT3WDW3tT6j-54" style="shape=partialRectangle;connectable=0;fillColor=none;top=0;left=0;bottom=0;right=0;editable=1;overflow=hidden;whiteSpace=wrap;html=1;" vertex="1" parent="cbfVG_8tGOT3WDW3tT6j-53">
          <mxGeometry width="30" height="30" as="geometry">
            <mxRectangle width="30" height="30" as="alternateBounds" />
          </mxGeometry>
        </mxCell>
        <mxCell id="cbfVG_8tGOT3WDW3tT6j-55" value="&lt;span style=&quot;color: rgb(204, 204, 204); font-family: Consolas, &amp;quot;Courier New&amp;quot;, monospace; font-size: 14px; white-space: pre;&quot;&gt;StartDate&lt;/span&gt;" style="shape=partialRectangle;connectable=0;fillColor=#647687;top=0;left=0;bottom=0;right=0;align=left;spacingLeft=6;overflow=hidden;whiteSpace=wrap;html=1;fontColor=#ffffff;strokeColor=#314354;" vertex="1" parent="cbfVG_8tGOT3WDW3tT6j-53">
          <mxGeometry x="30" width="200" height="30" as="geometry">
            <mxRectangle width="200" height="30" as="alternateBounds" />
          </mxGeometry>
        </mxCell>
        <mxCell id="cbfVG_8tGOT3WDW3tT6j-50" style="shape=tableRow;horizontal=0;startSize=0;swimlaneHead=0;swimlaneBody=0;fillColor=none;collapsible=0;dropTarget=0;points=[[0,0.5],[1,0.5]];portConstraint=eastwest;top=0;left=0;right=0;bottom=0;" vertex="1" parent="cbfVG_8tGOT3WDW3tT6j-1">
          <mxGeometry y="230" width="230" height="30" as="geometry" />
        </mxCell>
        <mxCell id="cbfVG_8tGOT3WDW3tT6j-51" style="shape=partialRectangle;connectable=0;fillColor=none;top=0;left=0;bottom=0;right=0;editable=1;overflow=hidden;whiteSpace=wrap;html=1;" vertex="1" parent="cbfVG_8tGOT3WDW3tT6j-50">
          <mxGeometry width="30" height="30" as="geometry">
            <mxRectangle width="30" height="30" as="alternateBounds" />
          </mxGeometry>
        </mxCell>
        <mxCell id="cbfVG_8tGOT3WDW3tT6j-52" value="&lt;span style=&quot;color: rgb(204, 204, 204); font-family: Consolas, &amp;quot;Courier New&amp;quot;, monospace; font-size: 14px; white-space: pre;&quot;&gt;EndDate&lt;/span&gt;" style="shape=partialRectangle;connectable=0;fillColor=#647687;top=0;left=0;bottom=0;right=0;align=left;spacingLeft=6;overflow=hidden;whiteSpace=wrap;html=1;fontColor=#ffffff;strokeColor=#314354;" vertex="1" parent="cbfVG_8tGOT3WDW3tT6j-50">
          <mxGeometry x="30" width="200" height="30" as="geometry">
            <mxRectangle width="200" height="30" as="alternateBounds" />
          </mxGeometry>
        </mxCell>
        <mxCell id="cbfVG_8tGOT3WDW3tT6j-47" style="shape=tableRow;horizontal=0;startSize=0;swimlaneHead=0;swimlaneBody=0;fillColor=none;collapsible=0;dropTarget=0;points=[[0,0.5],[1,0.5]];portConstraint=eastwest;top=0;left=0;right=0;bottom=0;" vertex="1" parent="cbfVG_8tGOT3WDW3tT6j-1">
          <mxGeometry y="260" width="230" height="40" as="geometry" />
        </mxCell>
        <mxCell id="cbfVG_8tGOT3WDW3tT6j-48" style="shape=partialRectangle;connectable=0;fillColor=none;top=0;left=0;bottom=0;right=0;editable=1;overflow=hidden;whiteSpace=wrap;html=1;" vertex="1" parent="cbfVG_8tGOT3WDW3tT6j-47">
          <mxGeometry width="30" height="40" as="geometry">
            <mxRectangle width="30" height="40" as="alternateBounds" />
          </mxGeometry>
        </mxCell>
        <mxCell id="cbfVG_8tGOT3WDW3tT6j-49" value="&lt;span style=&quot;color: rgb(204, 204, 204); font-family: Consolas, &amp;quot;Courier New&amp;quot;, monospace; font-size: 14px; white-space: pre;&quot;&gt;EstimatedBudget&lt;/span&gt;" style="shape=partialRectangle;connectable=0;fillColor=#647687;top=0;left=0;bottom=0;right=0;align=left;spacingLeft=6;overflow=hidden;whiteSpace=wrap;html=1;fontColor=#ffffff;strokeColor=#314354;" vertex="1" parent="cbfVG_8tGOT3WDW3tT6j-47">
          <mxGeometry x="30" width="200" height="40" as="geometry">
            <mxRectangle width="200" height="40" as="alternateBounds" />
          </mxGeometry>
        </mxCell>
        <mxCell id="cbfVG_8tGOT3WDW3tT6j-44" style="shape=tableRow;horizontal=0;startSize=0;swimlaneHead=0;swimlaneBody=0;fillColor=none;collapsible=0;dropTarget=0;points=[[0,0.5],[1,0.5]];portConstraint=eastwest;top=0;left=0;right=0;bottom=0;" vertex="1" parent="cbfVG_8tGOT3WDW3tT6j-1">
          <mxGeometry y="300" width="230" height="40" as="geometry" />
        </mxCell>
        <mxCell id="cbfVG_8tGOT3WDW3tT6j-45" style="shape=partialRectangle;connectable=0;fillColor=none;top=0;left=0;bottom=0;right=0;editable=1;overflow=hidden;whiteSpace=wrap;html=1;" vertex="1" parent="cbfVG_8tGOT3WDW3tT6j-44">
          <mxGeometry width="30" height="40" as="geometry">
            <mxRectangle width="30" height="40" as="alternateBounds" />
          </mxGeometry>
        </mxCell>
        <mxCell id="cbfVG_8tGOT3WDW3tT6j-46" value="&lt;span style=&quot;color: rgb(204, 204, 204); font-family: Consolas, &amp;quot;Courier New&amp;quot;, monospace; font-size: 14px; white-space: pre;&quot;&gt;ActualCost&lt;/span&gt;" style="shape=partialRectangle;connectable=0;fillColor=#647687;top=0;left=0;bottom=0;right=0;align=left;spacingLeft=6;overflow=hidden;whiteSpace=wrap;html=1;fontColor=#ffffff;strokeColor=#314354;" vertex="1" parent="cbfVG_8tGOT3WDW3tT6j-44">
          <mxGeometry x="30" width="200" height="40" as="geometry">
            <mxRectangle width="200" height="40" as="alternateBounds" />
          </mxGeometry>
        </mxCell>
        <mxCell id="cbfVG_8tGOT3WDW3tT6j-41" style="shape=tableRow;horizontal=0;startSize=0;swimlaneHead=0;swimlaneBody=0;fillColor=none;collapsible=0;dropTarget=0;points=[[0,0.5],[1,0.5]];portConstraint=eastwest;top=0;left=0;right=0;bottom=0;" vertex="1" parent="cbfVG_8tGOT3WDW3tT6j-1">
          <mxGeometry y="340" width="230" height="30" as="geometry" />
        </mxCell>
        <mxCell id="cbfVG_8tGOT3WDW3tT6j-42" style="shape=partialRectangle;connectable=0;fillColor=#647687;top=0;left=0;bottom=0;right=0;editable=1;overflow=hidden;whiteSpace=wrap;html=1;fontColor=#ffffff;strokeColor=#314354;" vertex="1" parent="cbfVG_8tGOT3WDW3tT6j-41">
          <mxGeometry width="30" height="30" as="geometry">
            <mxRectangle width="30" height="30" as="alternateBounds" />
          </mxGeometry>
        </mxCell>
        <mxCell id="cbfVG_8tGOT3WDW3tT6j-43" value="&lt;span style=&quot;color: rgb(204, 204, 204); font-family: Consolas, &amp;quot;Courier New&amp;quot;, monospace; font-size: 14px; white-space: pre;&quot;&gt;Location&lt;/span&gt;" style="shape=partialRectangle;connectable=0;fillColor=#a0522d;top=0;left=0;bottom=0;right=0;align=left;spacingLeft=6;overflow=hidden;whiteSpace=wrap;html=1;fontColor=#ffffff;strokeColor=#6D1F00;" vertex="1" parent="cbfVG_8tGOT3WDW3tT6j-41">
          <mxGeometry x="30" width="200" height="30" as="geometry">
            <mxRectangle width="200" height="30" as="alternateBounds" />
          </mxGeometry>
        </mxCell>
        <mxCell id="cbfVG_8tGOT3WDW3tT6j-38" style="shape=tableRow;horizontal=0;startSize=0;swimlaneHead=0;swimlaneBody=0;fillColor=none;collapsible=0;dropTarget=0;points=[[0,0.5],[1,0.5]];portConstraint=eastwest;top=0;left=0;right=0;bottom=0;" vertex="1" parent="cbfVG_8tGOT3WDW3tT6j-1">
          <mxGeometry y="370" width="230" height="30" as="geometry" />
        </mxCell>
        <mxCell id="cbfVG_8tGOT3WDW3tT6j-39" style="shape=partialRectangle;connectable=0;fillColor=#647687;top=0;left=0;bottom=0;right=0;editable=1;overflow=hidden;whiteSpace=wrap;html=1;fontColor=#ffffff;strokeColor=#314354;" vertex="1" parent="cbfVG_8tGOT3WDW3tT6j-38">
          <mxGeometry width="30" height="30" as="geometry">
            <mxRectangle width="30" height="30" as="alternateBounds" />
          </mxGeometry>
        </mxCell>
        <mxCell id="cbfVG_8tGOT3WDW3tT6j-40" value="&lt;span style=&quot;color: rgb(204, 204, 204); font-family: Consolas, &amp;quot;Courier New&amp;quot;, monospace; font-size: 14px; white-space: pre;&quot;&gt;ManagerName&lt;/span&gt;" style="shape=partialRectangle;connectable=0;fillColor=#6d8764;top=0;left=0;bottom=0;right=0;align=left;spacingLeft=6;overflow=hidden;whiteSpace=wrap;html=1;fontColor=#ffffff;strokeColor=#3A5431;" vertex="1" parent="cbfVG_8tGOT3WDW3tT6j-38">
          <mxGeometry x="30" width="200" height="30" as="geometry">
            <mxRectangle width="200" height="30" as="alternateBounds" />
          </mxGeometry>
        </mxCell>
        <mxCell id="cbfVG_8tGOT3WDW3tT6j-35" style="shape=tableRow;horizontal=0;startSize=0;swimlaneHead=0;swimlaneBody=0;fillColor=none;collapsible=0;dropTarget=0;points=[[0,0.5],[1,0.5]];portConstraint=eastwest;top=0;left=0;right=0;bottom=0;" vertex="1" parent="cbfVG_8tGOT3WDW3tT6j-1">
          <mxGeometry y="400" width="230" height="30" as="geometry" />
        </mxCell>
        <mxCell id="cbfVG_8tGOT3WDW3tT6j-36" style="shape=partialRectangle;connectable=0;fillColor=none;top=0;left=0;bottom=0;right=0;editable=1;overflow=hidden;whiteSpace=wrap;html=1;" vertex="1" parent="cbfVG_8tGOT3WDW3tT6j-35">
          <mxGeometry width="30" height="30" as="geometry">
            <mxRectangle width="30" height="30" as="alternateBounds" />
          </mxGeometry>
        </mxCell>
        <mxCell id="cbfVG_8tGOT3WDW3tT6j-37" value="&lt;span style=&quot;color: rgb(204, 204, 204); font-family: Consolas, &amp;quot;Courier New&amp;quot;, monospace; font-size: 14px; white-space: pre;&quot;&gt;TeamSize&lt;/span&gt;" style="shape=partialRectangle;connectable=0;fillColor=#647687;top=0;left=0;bottom=0;right=0;align=left;spacingLeft=6;overflow=hidden;whiteSpace=wrap;html=1;fontColor=#ffffff;strokeColor=#314354;" vertex="1" parent="cbfVG_8tGOT3WDW3tT6j-35">
          <mxGeometry x="30" width="200" height="30" as="geometry">
            <mxRectangle width="200" height="30" as="alternateBounds" />
          </mxGeometry>
        </mxCell>
        <mxCell id="cbfVG_8tGOT3WDW3tT6j-32" style="shape=tableRow;horizontal=0;startSize=0;swimlaneHead=0;swimlaneBody=0;fillColor=none;collapsible=0;dropTarget=0;points=[[0,0.5],[1,0.5]];portConstraint=eastwest;top=0;left=0;right=0;bottom=0;" vertex="1" parent="cbfVG_8tGOT3WDW3tT6j-1">
          <mxGeometry y="430" width="230" height="40" as="geometry" />
        </mxCell>
        <mxCell id="cbfVG_8tGOT3WDW3tT6j-33" style="shape=partialRectangle;connectable=0;fillColor=#647687;top=0;left=0;bottom=0;right=0;editable=1;overflow=hidden;whiteSpace=wrap;html=1;fontColor=#ffffff;strokeColor=#314354;" vertex="1" parent="cbfVG_8tGOT3WDW3tT6j-32">
          <mxGeometry width="30" height="40" as="geometry">
            <mxRectangle width="30" height="40" as="alternateBounds" />
          </mxGeometry>
        </mxCell>
        <mxCell id="cbfVG_8tGOT3WDW3tT6j-34" value="&lt;span style=&quot;color: rgb(204, 204, 204); font-family: Consolas, &amp;quot;Courier New&amp;quot;, monospace; font-size: 14px; white-space: pre;&quot;&gt;ContractorName&lt;/span&gt;" style="shape=partialRectangle;connectable=0;fillColor=#e51400;top=0;left=0;bottom=0;right=0;align=left;spacingLeft=6;overflow=hidden;whiteSpace=wrap;html=1;fontColor=#ffffff;strokeColor=#B20000;" vertex="1" parent="cbfVG_8tGOT3WDW3tT6j-32">
          <mxGeometry x="30" width="200" height="40" as="geometry">
            <mxRectangle width="200" height="40" as="alternateBounds" />
          </mxGeometry>
        </mxCell>
        <mxCell id="cbfVG_8tGOT3WDW3tT6j-29" style="shape=tableRow;horizontal=0;startSize=0;swimlaneHead=0;swimlaneBody=0;fillColor=none;collapsible=0;dropTarget=0;points=[[0,0.5],[1,0.5]];portConstraint=eastwest;top=0;left=0;right=0;bottom=0;" vertex="1" parent="cbfVG_8tGOT3WDW3tT6j-1">
          <mxGeometry y="470" width="230" height="30" as="geometry" />
        </mxCell>
        <mxCell id="cbfVG_8tGOT3WDW3tT6j-30" style="shape=partialRectangle;connectable=0;fillColor=none;top=0;left=0;bottom=0;right=0;editable=1;overflow=hidden;whiteSpace=wrap;html=1;" vertex="1" parent="cbfVG_8tGOT3WDW3tT6j-29">
          <mxGeometry width="30" height="30" as="geometry">
            <mxRectangle width="30" height="30" as="alternateBounds" />
          </mxGeometry>
        </mxCell>
        <mxCell id="cbfVG_8tGOT3WDW3tT6j-31" value="&lt;span style=&quot;color: rgb(204, 204, 204); font-family: Consolas, &amp;quot;Courier New&amp;quot;, monospace; font-size: 14px; white-space: pre;&quot;&gt;NumberOfSubcontractors&lt;/span&gt;" style="shape=partialRectangle;connectable=0;fillColor=#e51400;top=0;left=0;bottom=0;right=0;align=left;spacingLeft=6;overflow=hidden;whiteSpace=wrap;html=1;fontColor=#ffffff;strokeColor=#B20000;" vertex="1" parent="cbfVG_8tGOT3WDW3tT6j-29">
          <mxGeometry x="30" width="200" height="30" as="geometry">
            <mxRectangle width="200" height="30" as="alternateBounds" />
          </mxGeometry>
        </mxCell>
        <mxCell id="cbfVG_8tGOT3WDW3tT6j-26" style="shape=tableRow;horizontal=0;startSize=0;swimlaneHead=0;swimlaneBody=0;fillColor=none;collapsible=0;dropTarget=0;points=[[0,0.5],[1,0.5]];portConstraint=eastwest;top=0;left=0;right=0;bottom=0;" vertex="1" parent="cbfVG_8tGOT3WDW3tT6j-1">
          <mxGeometry y="500" width="230" height="30" as="geometry" />
        </mxCell>
        <mxCell id="cbfVG_8tGOT3WDW3tT6j-27" value="" style="shape=partialRectangle;connectable=0;fillColor=none;top=0;left=0;bottom=0;right=0;editable=1;overflow=hidden;whiteSpace=wrap;html=1;fontColor=#ffffff;strokeColor=#A50040;" vertex="1" parent="cbfVG_8tGOT3WDW3tT6j-26">
          <mxGeometry width="30" height="30" as="geometry">
            <mxRectangle width="30" height="30" as="alternateBounds" />
          </mxGeometry>
        </mxCell>
        <mxCell id="cbfVG_8tGOT3WDW3tT6j-28" value="&lt;span style=&quot;color: rgb(204, 204, 204); font-family: Consolas, &amp;quot;Courier New&amp;quot;, monospace; font-size: 14px; white-space: pre;&quot;&gt;MaterialsCost&lt;/span&gt;" style="shape=partialRectangle;connectable=0;fillColor=#647687;top=0;left=0;bottom=0;right=0;align=left;spacingLeft=6;overflow=hidden;whiteSpace=wrap;html=1;fontColor=#ffffff;strokeColor=#314354;" vertex="1" parent="cbfVG_8tGOT3WDW3tT6j-26">
          <mxGeometry x="30" width="200" height="30" as="geometry">
            <mxRectangle width="200" height="30" as="alternateBounds" />
          </mxGeometry>
        </mxCell>
        <mxCell id="cbfVG_8tGOT3WDW3tT6j-23" style="shape=tableRow;horizontal=0;startSize=0;swimlaneHead=0;swimlaneBody=0;fillColor=none;collapsible=0;dropTarget=0;points=[[0,0.5],[1,0.5]];portConstraint=eastwest;top=0;left=0;right=0;bottom=0;" vertex="1" parent="cbfVG_8tGOT3WDW3tT6j-1">
          <mxGeometry y="530" width="230" height="30" as="geometry" />
        </mxCell>
        <mxCell id="cbfVG_8tGOT3WDW3tT6j-24" style="shape=partialRectangle;connectable=0;fillColor=none;top=0;left=0;bottom=0;right=0;editable=1;overflow=hidden;whiteSpace=wrap;html=1;" vertex="1" parent="cbfVG_8tGOT3WDW3tT6j-23">
          <mxGeometry width="30" height="30" as="geometry">
            <mxRectangle width="30" height="30" as="alternateBounds" />
          </mxGeometry>
        </mxCell>
        <mxCell id="cbfVG_8tGOT3WDW3tT6j-25" value="&lt;span style=&quot;color: rgb(204, 204, 204); font-family: Consolas, &amp;quot;Courier New&amp;quot;, monospace; font-size: 14px; white-space: pre;&quot;&gt;LaborCost&lt;/span&gt;" style="shape=partialRectangle;connectable=0;fillColor=#647687;top=0;left=0;bottom=0;right=0;align=left;spacingLeft=6;overflow=hidden;whiteSpace=wrap;html=1;fontColor=#ffffff;strokeColor=#314354;" vertex="1" parent="cbfVG_8tGOT3WDW3tT6j-23">
          <mxGeometry x="30" width="200" height="30" as="geometry">
            <mxRectangle width="200" height="30" as="alternateBounds" />
          </mxGeometry>
        </mxCell>
        <mxCell id="cbfVG_8tGOT3WDW3tT6j-20" style="shape=tableRow;horizontal=0;startSize=0;swimlaneHead=0;swimlaneBody=0;fillColor=none;collapsible=0;dropTarget=0;points=[[0,0.5],[1,0.5]];portConstraint=eastwest;top=0;left=0;right=0;bottom=0;" vertex="1" parent="cbfVG_8tGOT3WDW3tT6j-1">
          <mxGeometry y="560" width="230" height="30" as="geometry" />
        </mxCell>
        <mxCell id="cbfVG_8tGOT3WDW3tT6j-21" style="shape=partialRectangle;connectable=0;fillColor=none;top=0;left=0;bottom=0;right=0;editable=1;overflow=hidden;whiteSpace=wrap;html=1;" vertex="1" parent="cbfVG_8tGOT3WDW3tT6j-20">
          <mxGeometry width="30" height="30" as="geometry">
            <mxRectangle width="30" height="30" as="alternateBounds" />
          </mxGeometry>
        </mxCell>
        <mxCell id="cbfVG_8tGOT3WDW3tT6j-22" value="&lt;span style=&quot;color: rgb(204, 204, 204); font-family: Consolas, &amp;quot;Courier New&amp;quot;, monospace; font-size: 14px; white-space: pre;&quot;&gt;EquipmentCost&lt;/span&gt;" style="shape=partialRectangle;connectable=0;fillColor=#647687;top=0;left=0;bottom=0;right=0;align=left;spacingLeft=6;overflow=hidden;whiteSpace=wrap;html=1;fontColor=#ffffff;strokeColor=#314354;" vertex="1" parent="cbfVG_8tGOT3WDW3tT6j-20">
          <mxGeometry x="30" width="200" height="30" as="geometry">
            <mxRectangle width="200" height="30" as="alternateBounds" />
          </mxGeometry>
        </mxCell>
        <mxCell id="cbfVG_8tGOT3WDW3tT6j-17" style="shape=tableRow;horizontal=0;startSize=0;swimlaneHead=0;swimlaneBody=0;fillColor=none;collapsible=0;dropTarget=0;points=[[0,0.5],[1,0.5]];portConstraint=eastwest;top=0;left=0;right=0;bottom=0;" vertex="1" parent="cbfVG_8tGOT3WDW3tT6j-1">
          <mxGeometry y="590" width="230" height="30" as="geometry" />
        </mxCell>
        <mxCell id="cbfVG_8tGOT3WDW3tT6j-18" style="shape=partialRectangle;connectable=0;fillColor=none;top=0;left=0;bottom=0;right=0;editable=1;overflow=hidden;whiteSpace=wrap;html=1;" vertex="1" parent="cbfVG_8tGOT3WDW3tT6j-17">
          <mxGeometry width="30" height="30" as="geometry">
            <mxRectangle width="30" height="30" as="alternateBounds" />
          </mxGeometry>
        </mxCell>
        <mxCell id="cbfVG_8tGOT3WDW3tT6j-19" value="&lt;span style=&quot;color: rgb(204, 204, 204); font-family: Consolas, &amp;quot;Courier New&amp;quot;, monospace; font-size: 14px; white-space: pre;&quot;&gt;PermitFees&lt;/span&gt;" style="shape=partialRectangle;connectable=0;fillColor=#647687;top=0;left=0;bottom=0;right=0;align=left;spacingLeft=6;overflow=hidden;whiteSpace=wrap;html=1;fontColor=#ffffff;strokeColor=#314354;" vertex="1" parent="cbfVG_8tGOT3WDW3tT6j-17">
          <mxGeometry x="30" width="200" height="30" as="geometry">
            <mxRectangle width="200" height="30" as="alternateBounds" />
          </mxGeometry>
        </mxCell>
        <mxCell id="cbfVG_8tGOT3WDW3tT6j-14" style="shape=tableRow;horizontal=0;startSize=0;swimlaneHead=0;swimlaneBody=0;fillColor=none;collapsible=0;dropTarget=0;points=[[0,0.5],[1,0.5]];portConstraint=eastwest;top=0;left=0;right=0;bottom=0;" vertex="1" parent="cbfVG_8tGOT3WDW3tT6j-1">
          <mxGeometry y="620" width="230" height="30" as="geometry" />
        </mxCell>
        <mxCell id="cbfVG_8tGOT3WDW3tT6j-15" style="shape=partialRectangle;connectable=0;fillColor=none;top=0;left=0;bottom=0;right=0;editable=1;overflow=hidden;whiteSpace=wrap;html=1;" vertex="1" parent="cbfVG_8tGOT3WDW3tT6j-14">
          <mxGeometry width="30" height="30" as="geometry">
            <mxRectangle width="30" height="30" as="alternateBounds" />
          </mxGeometry>
        </mxCell>
        <mxCell id="cbfVG_8tGOT3WDW3tT6j-16" value="&lt;span style=&quot;color: rgb(204, 204, 204); font-family: Consolas, &amp;quot;Courier New&amp;quot;, monospace; font-size: 14px; white-space: pre;&quot;&gt;InspectionFees&lt;/span&gt;" style="shape=partialRectangle;connectable=0;fillColor=#647687;top=0;left=0;bottom=0;right=0;align=left;spacingLeft=6;overflow=hidden;whiteSpace=wrap;html=1;fontColor=#ffffff;strokeColor=#314354;" vertex="1" parent="cbfVG_8tGOT3WDW3tT6j-14">
          <mxGeometry x="30" width="200" height="30" as="geometry">
            <mxRectangle width="200" height="30" as="alternateBounds" />
          </mxGeometry>
        </mxCell>
        <mxCell id="cbfVG_8tGOT3WDW3tT6j-68" style="shape=tableRow;horizontal=0;startSize=0;swimlaneHead=0;swimlaneBody=0;fillColor=none;collapsible=0;dropTarget=0;points=[[0,0.5],[1,0.5]];portConstraint=eastwest;top=0;left=0;right=0;bottom=0;" vertex="1" parent="cbfVG_8tGOT3WDW3tT6j-1">
          <mxGeometry y="650" width="230" height="30" as="geometry" />
        </mxCell>
        <mxCell id="cbfVG_8tGOT3WDW3tT6j-69" style="shape=partialRectangle;connectable=0;fillColor=none;top=0;left=0;bottom=0;right=0;editable=1;overflow=hidden;whiteSpace=wrap;html=1;" vertex="1" parent="cbfVG_8tGOT3WDW3tT6j-68">
          <mxGeometry width="30" height="30" as="geometry">
            <mxRectangle width="30" height="30" as="alternateBounds" />
          </mxGeometry>
        </mxCell>
        <mxCell id="cbfVG_8tGOT3WDW3tT6j-70" value="&lt;span style=&quot;color: rgb(204, 204, 204); font-family: Consolas, &amp;quot;Courier New&amp;quot;, monospace; font-size: 14px; white-space: pre;&quot;&gt;ChangeOrderCount&lt;/span&gt;" style="shape=partialRectangle;connectable=0;fillColor=#647687;top=0;left=0;bottom=0;right=0;align=left;spacingLeft=6;overflow=hidden;whiteSpace=wrap;html=1;fontColor=#ffffff;strokeColor=#314354;" vertex="1" parent="cbfVG_8tGOT3WDW3tT6j-68">
          <mxGeometry x="30" width="200" height="30" as="geometry">
            <mxRectangle width="200" height="30" as="alternateBounds" />
          </mxGeometry>
        </mxCell>
        <mxCell id="cbfVG_8tGOT3WDW3tT6j-65" style="shape=tableRow;horizontal=0;startSize=0;swimlaneHead=0;swimlaneBody=0;fillColor=none;collapsible=0;dropTarget=0;points=[[0,0.5],[1,0.5]];portConstraint=eastwest;top=0;left=0;right=0;bottom=0;" vertex="1" parent="cbfVG_8tGOT3WDW3tT6j-1">
          <mxGeometry y="680" width="230" height="30" as="geometry" />
        </mxCell>
        <mxCell id="cbfVG_8tGOT3WDW3tT6j-66" style="shape=partialRectangle;connectable=0;fillColor=none;top=0;left=0;bottom=0;right=0;editable=1;overflow=hidden;whiteSpace=wrap;html=1;" vertex="1" parent="cbfVG_8tGOT3WDW3tT6j-65">
          <mxGeometry width="30" height="30" as="geometry">
            <mxRectangle width="30" height="30" as="alternateBounds" />
          </mxGeometry>
        </mxCell>
        <mxCell id="cbfVG_8tGOT3WDW3tT6j-67" value="&lt;span style=&quot;color: rgb(204, 204, 204); font-family: Consolas, &amp;quot;Courier New&amp;quot;, monospace; font-size: 14px; white-space: pre;&quot;&gt;SafetyIncidentsCount&lt;/span&gt;" style="shape=partialRectangle;connectable=0;fillColor=#647687;top=0;left=0;bottom=0;right=0;align=left;spacingLeft=6;overflow=hidden;whiteSpace=wrap;html=1;fontColor=#ffffff;strokeColor=#314354;" vertex="1" parent="cbfVG_8tGOT3WDW3tT6j-65">
          <mxGeometry x="30" width="200" height="30" as="geometry">
            <mxRectangle width="200" height="30" as="alternateBounds" />
          </mxGeometry>
        </mxCell>
        <mxCell id="cbfVG_8tGOT3WDW3tT6j-62" style="shape=tableRow;horizontal=0;startSize=0;swimlaneHead=0;swimlaneBody=0;fillColor=none;collapsible=0;dropTarget=0;points=[[0,0.5],[1,0.5]];portConstraint=eastwest;top=0;left=0;right=0;bottom=0;" vertex="1" parent="cbfVG_8tGOT3WDW3tT6j-1">
          <mxGeometry y="710" width="230" height="30" as="geometry" />
        </mxCell>
        <mxCell id="cbfVG_8tGOT3WDW3tT6j-63" style="shape=partialRectangle;connectable=0;fillColor=none;top=0;left=0;bottom=0;right=0;editable=1;overflow=hidden;whiteSpace=wrap;html=1;" vertex="1" parent="cbfVG_8tGOT3WDW3tT6j-62">
          <mxGeometry width="30" height="30" as="geometry">
            <mxRectangle width="30" height="30" as="alternateBounds" />
          </mxGeometry>
        </mxCell>
        <mxCell id="cbfVG_8tGOT3WDW3tT6j-64" value="&lt;span style=&quot;color: rgb(204, 204, 204); font-family: Consolas, &amp;quot;Courier New&amp;quot;, monospace; font-size: 14px; white-space: pre;&quot;&gt;ProjectDelayDays&lt;/span&gt;" style="shape=partialRectangle;connectable=0;fillColor=#647687;top=0;left=0;bottom=0;right=0;align=left;spacingLeft=6;overflow=hidden;whiteSpace=wrap;html=1;fontColor=#ffffff;strokeColor=#314354;" vertex="1" parent="cbfVG_8tGOT3WDW3tT6j-62">
          <mxGeometry x="30" width="200" height="30" as="geometry">
            <mxRectangle width="200" height="30" as="alternateBounds" />
          </mxGeometry>
        </mxCell>
        <mxCell id="cbfVG_8tGOT3WDW3tT6j-59" style="shape=tableRow;horizontal=0;startSize=0;swimlaneHead=0;swimlaneBody=0;fillColor=none;collapsible=0;dropTarget=0;points=[[0,0.5],[1,0.5]];portConstraint=eastwest;top=0;left=0;right=0;bottom=0;" vertex="1" parent="cbfVG_8tGOT3WDW3tT6j-1">
          <mxGeometry y="740" width="230" height="30" as="geometry" />
        </mxCell>
        <mxCell id="cbfVG_8tGOT3WDW3tT6j-60" style="shape=partialRectangle;connectable=0;fillColor=none;top=0;left=0;bottom=0;right=0;editable=1;overflow=hidden;whiteSpace=wrap;html=1;" vertex="1" parent="cbfVG_8tGOT3WDW3tT6j-59">
          <mxGeometry width="30" height="30" as="geometry">
            <mxRectangle width="30" height="30" as="alternateBounds" />
          </mxGeometry>
        </mxCell>
        <mxCell id="cbfVG_8tGOT3WDW3tT6j-61" value="&lt;span style=&quot;color: rgb(204, 204, 204); font-family: Consolas, &amp;quot;Courier New&amp;quot;, monospace; font-size: 14px; white-space: pre;&quot;&gt;WeatherDelayDays&lt;/span&gt;" style="shape=partialRectangle;connectable=0;fillColor=#647687;top=0;left=0;bottom=0;right=0;align=left;spacingLeft=6;overflow=hidden;whiteSpace=wrap;html=1;fontColor=#ffffff;strokeColor=#314354;" vertex="1" parent="cbfVG_8tGOT3WDW3tT6j-59">
          <mxGeometry x="30" width="200" height="30" as="geometry">
            <mxRectangle width="200" height="30" as="alternateBounds" />
          </mxGeometry>
        </mxCell>
        <mxCell id="cbfVG_8tGOT3WDW3tT6j-80" style="shape=tableRow;horizontal=0;startSize=0;swimlaneHead=0;swimlaneBody=0;fillColor=none;collapsible=0;dropTarget=0;points=[[0,0.5],[1,0.5]];portConstraint=eastwest;top=0;left=0;right=0;bottom=0;" vertex="1" parent="cbfVG_8tGOT3WDW3tT6j-1">
          <mxGeometry y="770" width="230" height="30" as="geometry" />
        </mxCell>
        <mxCell id="cbfVG_8tGOT3WDW3tT6j-81" style="shape=partialRectangle;connectable=0;fillColor=none;top=0;left=0;bottom=0;right=0;editable=1;overflow=hidden;whiteSpace=wrap;html=1;fontColor=#ffffff;strokeColor=#A50040;" vertex="1" parent="cbfVG_8tGOT3WDW3tT6j-80">
          <mxGeometry width="30" height="30" as="geometry">
            <mxRectangle width="30" height="30" as="alternateBounds" />
          </mxGeometry>
        </mxCell>
        <mxCell id="cbfVG_8tGOT3WDW3tT6j-82" value="&lt;span style=&quot;color: rgb(204, 204, 204); font-family: Consolas, &amp;quot;Courier New&amp;quot;, monospace; font-size: 14px; white-space: pre;&quot;&gt;ClientFeedbackScore&lt;/span&gt;" style="shape=partialRectangle;connectable=0;fillColor=#647687;top=0;left=0;bottom=0;right=0;align=left;spacingLeft=6;overflow=hidden;whiteSpace=wrap;html=1;fontColor=#ffffff;strokeColor=#314354;" vertex="1" parent="cbfVG_8tGOT3WDW3tT6j-80">
          <mxGeometry x="30" width="200" height="30" as="geometry">
            <mxRectangle width="200" height="30" as="alternateBounds" />
          </mxGeometry>
        </mxCell>
        <mxCell id="cbfVG_8tGOT3WDW3tT6j-77" style="shape=tableRow;horizontal=0;startSize=0;swimlaneHead=0;swimlaneBody=0;fillColor=none;collapsible=0;dropTarget=0;points=[[0,0.5],[1,0.5]];portConstraint=eastwest;top=0;left=0;right=0;bottom=0;" vertex="1" parent="cbfVG_8tGOT3WDW3tT6j-1">
          <mxGeometry y="800" width="230" height="30" as="geometry" />
        </mxCell>
        <mxCell id="cbfVG_8tGOT3WDW3tT6j-78" style="shape=partialRectangle;connectable=0;fillColor=none;top=0;left=0;bottom=0;right=0;editable=1;overflow=hidden;whiteSpace=wrap;html=1;" vertex="1" parent="cbfVG_8tGOT3WDW3tT6j-77">
          <mxGeometry width="30" height="30" as="geometry">
            <mxRectangle width="30" height="30" as="alternateBounds" />
          </mxGeometry>
        </mxCell>
        <mxCell id="cbfVG_8tGOT3WDW3tT6j-79" value="&lt;span style=&quot;color: rgb(204, 204, 204); font-family: Consolas, &amp;quot;Courier New&amp;quot;, monospace; font-size: 14px; white-space: pre;&quot;&gt;QualityAuditScore&lt;/span&gt;" style="shape=partialRectangle;connectable=0;fillColor=#647687;top=0;left=0;bottom=0;right=0;align=left;spacingLeft=6;overflow=hidden;whiteSpace=wrap;html=1;fontColor=#ffffff;strokeColor=#314354;" vertex="1" parent="cbfVG_8tGOT3WDW3tT6j-77">
          <mxGeometry x="30" width="200" height="30" as="geometry">
            <mxRectangle width="200" height="30" as="alternateBounds" />
          </mxGeometry>
        </mxCell>
        <mxCell id="cbfVG_8tGOT3WDW3tT6j-74" style="shape=tableRow;horizontal=0;startSize=0;swimlaneHead=0;swimlaneBody=0;fillColor=none;collapsible=0;dropTarget=0;points=[[0,0.5],[1,0.5]];portConstraint=eastwest;top=0;left=0;right=0;bottom=0;" vertex="1" parent="cbfVG_8tGOT3WDW3tT6j-1">
          <mxGeometry y="830" width="230" height="30" as="geometry" />
        </mxCell>
        <mxCell id="cbfVG_8tGOT3WDW3tT6j-75" style="shape=partialRectangle;connectable=0;fillColor=none;top=0;left=0;bottom=0;right=0;editable=1;overflow=hidden;whiteSpace=wrap;html=1;" vertex="1" parent="cbfVG_8tGOT3WDW3tT6j-74">
          <mxGeometry width="30" height="30" as="geometry">
            <mxRectangle width="30" height="30" as="alternateBounds" />
          </mxGeometry>
        </mxCell>
        <mxCell id="cbfVG_8tGOT3WDW3tT6j-76" value="&lt;span style=&quot;color: rgb(204, 204, 204); font-family: Consolas, &amp;quot;Courier New&amp;quot;, monospace; font-size: 14px; white-space: pre;&quot;&gt;EnvironmentalImpactScore&lt;/span&gt;" style="shape=partialRectangle;connectable=0;fillColor=#647687;top=0;left=0;bottom=0;right=0;align=left;spacingLeft=6;overflow=hidden;whiteSpace=wrap;html=1;fontColor=#ffffff;strokeColor=#314354;" vertex="1" parent="cbfVG_8tGOT3WDW3tT6j-74">
          <mxGeometry x="30" width="200" height="30" as="geometry">
            <mxRectangle width="200" height="30" as="alternateBounds" />
          </mxGeometry>
        </mxCell>
        <mxCell id="cbfVG_8tGOT3WDW3tT6j-71" style="shape=tableRow;horizontal=0;startSize=0;swimlaneHead=0;swimlaneBody=0;fillColor=none;collapsible=0;dropTarget=0;points=[[0,0.5],[1,0.5]];portConstraint=eastwest;top=0;left=0;right=0;bottom=0;" vertex="1" parent="cbfVG_8tGOT3WDW3tT6j-1">
          <mxGeometry y="860" width="230" height="30" as="geometry" />
        </mxCell>
        <mxCell id="cbfVG_8tGOT3WDW3tT6j-72" style="shape=partialRectangle;connectable=0;fillColor=none;top=0;left=0;bottom=0;right=0;editable=1;overflow=hidden;whiteSpace=wrap;html=1;" vertex="1" parent="cbfVG_8tGOT3WDW3tT6j-71">
          <mxGeometry width="30" height="30" as="geometry">
            <mxRectangle width="30" height="30" as="alternateBounds" />
          </mxGeometry>
        </mxCell>
        <mxCell id="cbfVG_8tGOT3WDW3tT6j-73" value="&lt;span style=&quot;color: rgb(204, 204, 204); font-family: Consolas, &amp;quot;Courier New&amp;quot;, monospace; font-size: 14px; white-space: pre;&quot;&gt;EnergyEfficiencyScore&lt;/span&gt;" style="shape=partialRectangle;connectable=0;fillColor=#647687;top=0;left=0;bottom=0;right=0;align=left;spacingLeft=6;overflow=hidden;whiteSpace=wrap;html=1;fontColor=#ffffff;strokeColor=#314354;" vertex="1" parent="cbfVG_8tGOT3WDW3tT6j-71">
          <mxGeometry x="30" width="200" height="30" as="geometry">
            <mxRectangle width="200" height="30" as="alternateBounds" />
          </mxGeometry>
        </mxCell>
        <mxCell id="cbfVG_8tGOT3WDW3tT6j-86" style="shape=tableRow;horizontal=0;startSize=0;swimlaneHead=0;swimlaneBody=0;fillColor=none;collapsible=0;dropTarget=0;points=[[0,0.5],[1,0.5]];portConstraint=eastwest;top=0;left=0;right=0;bottom=0;" vertex="1" parent="cbfVG_8tGOT3WDW3tT6j-1">
          <mxGeometry y="890" width="230" height="30" as="geometry" />
        </mxCell>
        <mxCell id="cbfVG_8tGOT3WDW3tT6j-87" style="shape=partialRectangle;connectable=0;fillColor=none;top=0;left=0;bottom=0;right=0;editable=1;overflow=hidden;whiteSpace=wrap;html=1;" vertex="1" parent="cbfVG_8tGOT3WDW3tT6j-86">
          <mxGeometry width="30" height="30" as="geometry">
            <mxRectangle width="30" height="30" as="alternateBounds" />
          </mxGeometry>
        </mxCell>
        <mxCell id="cbfVG_8tGOT3WDW3tT6j-88" value="&lt;span style=&quot;color: rgb(204, 204, 204); font-family: Consolas, &amp;quot;Courier New&amp;quot;, monospace; font-size: 14px; white-space: pre;&quot;&gt;InnovationScore&lt;/span&gt;" style="shape=partialRectangle;connectable=0;fillColor=#647687;top=0;left=0;bottom=0;right=0;align=left;spacingLeft=6;overflow=hidden;whiteSpace=wrap;html=1;fontColor=#ffffff;strokeColor=#314354;" vertex="1" parent="cbfVG_8tGOT3WDW3tT6j-86">
          <mxGeometry x="30" width="200" height="30" as="geometry">
            <mxRectangle width="200" height="30" as="alternateBounds" />
          </mxGeometry>
        </mxCell>
        <mxCell id="cbfVG_8tGOT3WDW3tT6j-83" style="shape=tableRow;horizontal=0;startSize=0;swimlaneHead=0;swimlaneBody=0;fillColor=none;collapsible=0;dropTarget=0;points=[[0,0.5],[1,0.5]];portConstraint=eastwest;top=0;left=0;right=0;bottom=0;" vertex="1" parent="cbfVG_8tGOT3WDW3tT6j-1">
          <mxGeometry y="920" width="230" height="30" as="geometry" />
        </mxCell>
        <mxCell id="cbfVG_8tGOT3WDW3tT6j-84" style="shape=partialRectangle;connectable=0;fillColor=none;top=0;left=0;bottom=0;right=0;editable=1;overflow=hidden;whiteSpace=wrap;html=1;" vertex="1" parent="cbfVG_8tGOT3WDW3tT6j-83">
          <mxGeometry width="30" height="30" as="geometry">
            <mxRectangle width="30" height="30" as="alternateBounds" />
          </mxGeometry>
        </mxCell>
        <mxCell id="cbfVG_8tGOT3WDW3tT6j-85" value="&lt;span style=&quot;color: rgb(204, 204, 204); font-family: Consolas, &amp;quot;Courier New&amp;quot;, monospace; font-size: 14px; white-space: pre;&quot;&gt;CommunityImpactScore&lt;/span&gt;" style="shape=partialRectangle;connectable=0;fillColor=#647687;top=0;left=0;bottom=0;right=0;align=left;spacingLeft=6;overflow=hidden;whiteSpace=wrap;html=1;fontColor=#ffffff;strokeColor=#314354;" vertex="1" parent="cbfVG_8tGOT3WDW3tT6j-83">
          <mxGeometry x="30" width="200" height="30" as="geometry">
            <mxRectangle width="200" height="30" as="alternateBounds" />
          </mxGeometry>
        </mxCell>
        <mxCell id="cbfVG_8tGOT3WDW3tT6j-89" style="shape=tableRow;horizontal=0;startSize=0;swimlaneHead=0;swimlaneBody=0;fillColor=none;collapsible=0;dropTarget=0;points=[[0,0.5],[1,0.5]];portConstraint=eastwest;top=0;left=0;right=0;bottom=0;" vertex="1" parent="cbfVG_8tGOT3WDW3tT6j-1">
          <mxGeometry y="950" width="230" height="30" as="geometry" />
        </mxCell>
        <mxCell id="cbfVG_8tGOT3WDW3tT6j-90" style="shape=partialRectangle;connectable=0;fillColor=none;top=0;left=0;bottom=0;right=0;editable=1;overflow=hidden;whiteSpace=wrap;html=1;" vertex="1" parent="cbfVG_8tGOT3WDW3tT6j-89">
          <mxGeometry width="30" height="30" as="geometry">
            <mxRectangle width="30" height="30" as="alternateBounds" />
          </mxGeometry>
        </mxCell>
        <mxCell id="cbfVG_8tGOT3WDW3tT6j-91" value="&lt;span style=&quot;color: rgb(204, 204, 204); font-family: Consolas, &amp;quot;Courier New&amp;quot;, monospace; font-size: 14px; white-space: pre;&quot;&gt;ROI&lt;/span&gt;" style="shape=partialRectangle;connectable=0;fillColor=#647687;top=0;left=0;bottom=0;right=0;align=left;spacingLeft=6;overflow=hidden;whiteSpace=wrap;html=1;fontColor=#ffffff;strokeColor=#314354;" vertex="1" parent="cbfVG_8tGOT3WDW3tT6j-89">
          <mxGeometry x="30" width="200" height="30" as="geometry">
            <mxRectangle width="200" height="30" as="alternateBounds" />
          </mxGeometry>
        </mxCell>
        <mxCell id="cbfVG_8tGOT3WDW3tT6j-92" value="Tables" style="swimlane;fontStyle=0;childLayout=stackLayout;horizontal=1;startSize=26;horizontalStack=0;resizeParent=1;resizeParentMax=0;resizeLast=0;collapsible=1;marginBottom=0;align=center;fontSize=14;" vertex="1" parent="1">
          <mxGeometry x="570" y="120" width="160" height="206" as="geometry" />
        </mxCell>
        <mxCell id="cbfVG_8tGOT3WDW3tT6j-93" value="Fact Table" style="text;strokeColor=none;fillColor=none;spacingLeft=4;spacingRight=4;overflow=hidden;rotatable=0;points=[[0,0.5],[1,0.5]];portConstraint=eastwest;fontSize=12;whiteSpace=wrap;html=1;" vertex="1" parent="cbfVG_8tGOT3WDW3tT6j-92">
          <mxGeometry y="26" width="160" height="30" as="geometry" />
        </mxCell>
        <mxCell id="cbfVG_8tGOT3WDW3tT6j-94" value="Client" style="text;strokeColor=none;fillColor=none;spacingLeft=4;spacingRight=4;overflow=hidden;rotatable=0;points=[[0,0.5],[1,0.5]];portConstraint=eastwest;fontSize=12;whiteSpace=wrap;html=1;" vertex="1" parent="cbfVG_8tGOT3WDW3tT6j-92">
          <mxGeometry y="56" width="160" height="30" as="geometry" />
        </mxCell>
        <mxCell id="cbfVG_8tGOT3WDW3tT6j-95" value="Manager" style="text;strokeColor=none;fillColor=none;spacingLeft=4;spacingRight=4;overflow=hidden;rotatable=0;points=[[0,0.5],[1,0.5]];portConstraint=eastwest;fontSize=12;whiteSpace=wrap;html=1;" vertex="1" parent="cbfVG_8tGOT3WDW3tT6j-92">
          <mxGeometry y="86" width="160" height="30" as="geometry" />
        </mxCell>
        <mxCell id="cbfVG_8tGOT3WDW3tT6j-96" value="Contractor" style="text;strokeColor=none;fillColor=none;spacingLeft=4;spacingRight=4;overflow=hidden;rotatable=0;points=[[0,0.5],[1,0.5]];portConstraint=eastwest;fontSize=12;whiteSpace=wrap;html=1;" vertex="1" parent="cbfVG_8tGOT3WDW3tT6j-92">
          <mxGeometry y="116" width="160" height="30" as="geometry" />
        </mxCell>
        <mxCell id="cbfVG_8tGOT3WDW3tT6j-97" value="Location" style="text;strokeColor=none;fillColor=none;spacingLeft=4;spacingRight=4;overflow=hidden;rotatable=0;points=[[0,0.5],[1,0.5]];portConstraint=eastwest;fontSize=12;whiteSpace=wrap;html=1;" vertex="1" parent="cbfVG_8tGOT3WDW3tT6j-92">
          <mxGeometry y="146" width="160" height="30" as="geometry" />
        </mxCell>
        <mxCell id="cbfVG_8tGOT3WDW3tT6j-98" value="ProjectType" style="text;strokeColor=none;fillColor=none;spacingLeft=4;spacingRight=4;overflow=hidden;rotatable=0;points=[[0,0.5],[1,0.5]];portConstraint=eastwest;fontSize=12;whiteSpace=wrap;html=1;" vertex="1" parent="cbfVG_8tGOT3WDW3tT6j-92">
          <mxGeometry y="176" width="160" height="30" as="geometry" />
        </mxCell>
        <mxCell id="2hq82E3QTE7ygpO17lpo-1" value="Fact_Table" style="shape=table;startSize=30;container=1;collapsible=1;childLayout=tableLayout;fixedRows=1;rowLines=0;fontStyle=1;align=center;resizeLast=1;html=1;" vertex="1" parent="1">
          <mxGeometry x="1180" y="176" width="190" height="904" as="geometry" />
        </mxCell>
        <mxCell id="2hq82E3QTE7ygpO17lpo-2" value="" style="shape=tableRow;horizontal=0;startSize=0;swimlaneHead=0;swimlaneBody=0;fillColor=none;collapsible=0;dropTarget=0;points=[[0,0.5],[1,0.5]];portConstraint=eastwest;top=0;left=0;right=0;bottom=1;" vertex="1" parent="2hq82E3QTE7ygpO17lpo-1">
          <mxGeometry y="30" width="190" height="40" as="geometry" />
        </mxCell>
        <mxCell id="2hq82E3QTE7ygpO17lpo-3" value="PK" style="shape=partialRectangle;connectable=0;fillColor=none;top=0;left=0;bottom=0;right=0;fontStyle=1;overflow=hidden;whiteSpace=wrap;html=1;" vertex="1" parent="2hq82E3QTE7ygpO17lpo-2">
          <mxGeometry width="30" height="40" as="geometry">
            <mxRectangle width="30" height="40" as="alternateBounds" />
          </mxGeometry>
        </mxCell>
        <mxCell id="2hq82E3QTE7ygpO17lpo-4" value="ProjectID" style="shape=partialRectangle;connectable=0;fillColor=none;top=0;left=0;bottom=0;right=0;align=left;spacingLeft=6;fontStyle=5;overflow=hidden;whiteSpace=wrap;html=1;" vertex="1" parent="2hq82E3QTE7ygpO17lpo-2">
          <mxGeometry x="30" width="160" height="40" as="geometry">
            <mxRectangle width="160" height="40" as="alternateBounds" />
          </mxGeometry>
        </mxCell>
        <mxCell id="2hq82E3QTE7ygpO17lpo-5" value="" style="shape=tableRow;horizontal=0;startSize=0;swimlaneHead=0;swimlaneBody=0;fillColor=none;collapsible=0;dropTarget=0;points=[[0,0.5],[1,0.5]];portConstraint=eastwest;top=0;left=0;right=0;bottom=0;" vertex="1" parent="2hq82E3QTE7ygpO17lpo-1">
          <mxGeometry y="70" width="190" height="30" as="geometry" />
        </mxCell>
        <mxCell id="2hq82E3QTE7ygpO17lpo-6" value="FK" style="shape=partialRectangle;connectable=0;fillColor=none;top=0;left=0;bottom=0;right=0;editable=1;overflow=hidden;whiteSpace=wrap;html=1;" vertex="1" parent="2hq82E3QTE7ygpO17lpo-5">
          <mxGeometry width="30" height="30" as="geometry">
            <mxRectangle width="30" height="30" as="alternateBounds" />
          </mxGeometry>
        </mxCell>
        <mxCell id="2hq82E3QTE7ygpO17lpo-7" value="" style="shape=partialRectangle;connectable=0;fillColor=none;top=0;left=0;bottom=0;right=0;align=left;spacingLeft=6;overflow=hidden;whiteSpace=wrap;html=1;" vertex="1" parent="2hq82E3QTE7ygpO17lpo-5">
          <mxGeometry x="30" width="160" height="30" as="geometry">
            <mxRectangle width="160" height="30" as="alternateBounds" />
          </mxGeometry>
        </mxCell>
        <mxCell id="2hq82E3QTE7ygpO17lpo-8" style="shape=tableRow;horizontal=0;startSize=0;swimlaneHead=0;swimlaneBody=0;fillColor=none;collapsible=0;dropTarget=0;points=[[0,0.5],[1,0.5]];portConstraint=eastwest;top=0;left=0;right=0;bottom=0;" vertex="1" parent="2hq82E3QTE7ygpO17lpo-1">
          <mxGeometry y="100" width="190" height="30" as="geometry" />
        </mxCell>
        <mxCell id="2hq82E3QTE7ygpO17lpo-9" value="FK" style="shape=partialRectangle;connectable=0;fillColor=none;top=0;left=0;bottom=0;right=0;editable=1;overflow=hidden;whiteSpace=wrap;html=1;" vertex="1" parent="2hq82E3QTE7ygpO17lpo-8">
          <mxGeometry width="30" height="30" as="geometry">
            <mxRectangle width="30" height="30" as="alternateBounds" />
          </mxGeometry>
        </mxCell>
        <mxCell id="2hq82E3QTE7ygpO17lpo-10" value="ClientID" style="shape=partialRectangle;connectable=0;fillColor=none;top=0;left=0;bottom=0;right=0;align=left;spacingLeft=6;overflow=hidden;whiteSpace=wrap;html=1;" vertex="1" parent="2hq82E3QTE7ygpO17lpo-8">
          <mxGeometry x="30" width="160" height="30" as="geometry">
            <mxRectangle width="160" height="30" as="alternateBounds" />
          </mxGeometry>
        </mxCell>
        <mxCell id="2hq82E3QTE7ygpO17lpo-11" style="shape=tableRow;horizontal=0;startSize=0;swimlaneHead=0;swimlaneBody=0;fillColor=none;collapsible=0;dropTarget=0;points=[[0,0.5],[1,0.5]];portConstraint=eastwest;top=0;left=0;right=0;bottom=0;" vertex="1" parent="2hq82E3QTE7ygpO17lpo-1">
          <mxGeometry y="130" width="190" height="30" as="geometry" />
        </mxCell>
        <mxCell id="2hq82E3QTE7ygpO17lpo-12" value="FK" style="shape=partialRectangle;connectable=0;fillColor=none;top=0;left=0;bottom=0;right=0;editable=1;overflow=hidden;whiteSpace=wrap;html=1;" vertex="1" parent="2hq82E3QTE7ygpO17lpo-11">
          <mxGeometry width="30" height="30" as="geometry">
            <mxRectangle width="30" height="30" as="alternateBounds" />
          </mxGeometry>
        </mxCell>
        <mxCell id="2hq82E3QTE7ygpO17lpo-13" value="ContractorID" style="shape=partialRectangle;connectable=0;fillColor=none;top=0;left=0;bottom=0;right=0;align=left;spacingLeft=6;overflow=hidden;whiteSpace=wrap;html=1;" vertex="1" parent="2hq82E3QTE7ygpO17lpo-11">
          <mxGeometry x="30" width="160" height="30" as="geometry">
            <mxRectangle width="160" height="30" as="alternateBounds" />
          </mxGeometry>
        </mxCell>
        <mxCell id="2hq82E3QTE7ygpO17lpo-14" style="shape=tableRow;horizontal=0;startSize=0;swimlaneHead=0;swimlaneBody=0;fillColor=none;collapsible=0;dropTarget=0;points=[[0,0.5],[1,0.5]];portConstraint=eastwest;top=0;left=0;right=0;bottom=0;" vertex="1" parent="2hq82E3QTE7ygpO17lpo-1">
          <mxGeometry y="160" width="190" height="30" as="geometry" />
        </mxCell>
        <mxCell id="2hq82E3QTE7ygpO17lpo-15" value="FK" style="shape=partialRectangle;connectable=0;fillColor=none;top=0;left=0;bottom=0;right=0;editable=1;overflow=hidden;whiteSpace=wrap;html=1;" vertex="1" parent="2hq82E3QTE7ygpO17lpo-14">
          <mxGeometry width="30" height="30" as="geometry">
            <mxRectangle width="30" height="30" as="alternateBounds" />
          </mxGeometry>
        </mxCell>
        <mxCell id="2hq82E3QTE7ygpO17lpo-16" value="ManagerID" style="shape=partialRectangle;connectable=0;fillColor=none;top=0;left=0;bottom=0;right=0;align=left;spacingLeft=6;overflow=hidden;whiteSpace=wrap;html=1;" vertex="1" parent="2hq82E3QTE7ygpO17lpo-14">
          <mxGeometry x="30" width="160" height="30" as="geometry">
            <mxRectangle width="160" height="30" as="alternateBounds" />
          </mxGeometry>
        </mxCell>
        <mxCell id="2hq82E3QTE7ygpO17lpo-17" style="shape=tableRow;horizontal=0;startSize=0;swimlaneHead=0;swimlaneBody=0;fillColor=none;collapsible=0;dropTarget=0;points=[[0,0.5],[1,0.5]];portConstraint=eastwest;top=0;left=0;right=0;bottom=0;" vertex="1" parent="2hq82E3QTE7ygpO17lpo-1">
          <mxGeometry y="190" width="190" height="30" as="geometry" />
        </mxCell>
        <mxCell id="2hq82E3QTE7ygpO17lpo-18" value="FK" style="shape=partialRectangle;connectable=0;fillColor=none;top=0;left=0;bottom=0;right=0;editable=1;overflow=hidden;whiteSpace=wrap;html=1;" vertex="1" parent="2hq82E3QTE7ygpO17lpo-17">
          <mxGeometry width="30" height="30" as="geometry">
            <mxRectangle width="30" height="30" as="alternateBounds" />
          </mxGeometry>
        </mxCell>
        <mxCell id="2hq82E3QTE7ygpO17lpo-19" value="LocationID" style="shape=partialRectangle;connectable=0;fillColor=none;top=0;left=0;bottom=0;right=0;align=left;spacingLeft=6;overflow=hidden;whiteSpace=wrap;html=1;" vertex="1" parent="2hq82E3QTE7ygpO17lpo-17">
          <mxGeometry x="30" width="160" height="30" as="geometry">
            <mxRectangle width="160" height="30" as="alternateBounds" />
          </mxGeometry>
        </mxCell>
        <mxCell id="2hq82E3QTE7ygpO17lpo-20" style="shape=tableRow;horizontal=0;startSize=0;swimlaneHead=0;swimlaneBody=0;fillColor=none;collapsible=0;dropTarget=0;points=[[0,0.5],[1,0.5]];portConstraint=eastwest;top=0;left=0;right=0;bottom=0;" vertex="1" parent="2hq82E3QTE7ygpO17lpo-1">
          <mxGeometry y="220" width="190" height="30" as="geometry" />
        </mxCell>
        <mxCell id="2hq82E3QTE7ygpO17lpo-21" style="shape=partialRectangle;connectable=0;fillColor=none;top=0;left=0;bottom=0;right=0;editable=1;overflow=hidden;whiteSpace=wrap;html=1;" vertex="1" parent="2hq82E3QTE7ygpO17lpo-20">
          <mxGeometry width="30" height="30" as="geometry">
            <mxRectangle width="30" height="30" as="alternateBounds" />
          </mxGeometry>
        </mxCell>
        <mxCell id="2hq82E3QTE7ygpO17lpo-22" value="ProjectName" style="shape=partialRectangle;connectable=0;fillColor=none;top=0;left=0;bottom=0;right=0;align=left;spacingLeft=6;overflow=hidden;whiteSpace=wrap;html=1;" vertex="1" parent="2hq82E3QTE7ygpO17lpo-20">
          <mxGeometry x="30" width="160" height="30" as="geometry">
            <mxRectangle width="160" height="30" as="alternateBounds" />
          </mxGeometry>
        </mxCell>
        <mxCell id="2hq82E3QTE7ygpO17lpo-23" value="" style="shape=tableRow;horizontal=0;startSize=0;swimlaneHead=0;swimlaneBody=0;fillColor=none;collapsible=0;dropTarget=0;points=[[0,0.5],[1,0.5]];portConstraint=eastwest;top=0;left=0;right=0;bottom=0;" vertex="1" parent="2hq82E3QTE7ygpO17lpo-1">
          <mxGeometry y="250" width="190" height="24" as="geometry" />
        </mxCell>
        <mxCell id="2hq82E3QTE7ygpO17lpo-24" value="" style="shape=partialRectangle;connectable=0;fillColor=none;top=0;left=0;bottom=0;right=0;editable=1;overflow=hidden;whiteSpace=wrap;html=1;" vertex="1" parent="2hq82E3QTE7ygpO17lpo-23">
          <mxGeometry width="30" height="24" as="geometry">
            <mxRectangle width="30" height="24" as="alternateBounds" />
          </mxGeometry>
        </mxCell>
        <mxCell id="2hq82E3QTE7ygpO17lpo-25" value="ProjectStatus" style="shape=partialRectangle;connectable=0;fillColor=none;top=0;left=0;bottom=0;right=0;align=left;spacingLeft=6;overflow=hidden;whiteSpace=wrap;html=1;" vertex="1" parent="2hq82E3QTE7ygpO17lpo-23">
          <mxGeometry x="30" width="160" height="24" as="geometry">
            <mxRectangle width="160" height="24" as="alternateBounds" />
          </mxGeometry>
        </mxCell>
        <mxCell id="2hq82E3QTE7ygpO17lpo-26" style="shape=tableRow;horizontal=0;startSize=0;swimlaneHead=0;swimlaneBody=0;fillColor=none;collapsible=0;dropTarget=0;points=[[0,0.5],[1,0.5]];portConstraint=eastwest;top=0;left=0;right=0;bottom=0;" vertex="1" parent="2hq82E3QTE7ygpO17lpo-1">
          <mxGeometry y="274" width="190" height="30" as="geometry" />
        </mxCell>
        <mxCell id="2hq82E3QTE7ygpO17lpo-27" style="shape=partialRectangle;connectable=0;fillColor=none;top=0;left=0;bottom=0;right=0;editable=1;overflow=hidden;whiteSpace=wrap;html=1;" vertex="1" parent="2hq82E3QTE7ygpO17lpo-26">
          <mxGeometry width="30" height="30" as="geometry">
            <mxRectangle width="30" height="30" as="alternateBounds" />
          </mxGeometry>
        </mxCell>
        <mxCell id="2hq82E3QTE7ygpO17lpo-28" value="StartDate" style="shape=partialRectangle;connectable=0;fillColor=none;top=0;left=0;bottom=0;right=0;align=left;spacingLeft=6;overflow=hidden;whiteSpace=wrap;html=1;" vertex="1" parent="2hq82E3QTE7ygpO17lpo-26">
          <mxGeometry x="30" width="160" height="30" as="geometry">
            <mxRectangle width="160" height="30" as="alternateBounds" />
          </mxGeometry>
        </mxCell>
        <mxCell id="2hq82E3QTE7ygpO17lpo-29" style="shape=tableRow;horizontal=0;startSize=0;swimlaneHead=0;swimlaneBody=0;fillColor=none;collapsible=0;dropTarget=0;points=[[0,0.5],[1,0.5]];portConstraint=eastwest;top=0;left=0;right=0;bottom=0;" vertex="1" parent="2hq82E3QTE7ygpO17lpo-1">
          <mxGeometry y="304" width="190" height="30" as="geometry" />
        </mxCell>
        <mxCell id="2hq82E3QTE7ygpO17lpo-30" style="shape=partialRectangle;connectable=0;fillColor=none;top=0;left=0;bottom=0;right=0;editable=1;overflow=hidden;whiteSpace=wrap;html=1;" vertex="1" parent="2hq82E3QTE7ygpO17lpo-29">
          <mxGeometry width="30" height="30" as="geometry">
            <mxRectangle width="30" height="30" as="alternateBounds" />
          </mxGeometry>
        </mxCell>
        <mxCell id="2hq82E3QTE7ygpO17lpo-31" value="EndDate" style="shape=partialRectangle;connectable=0;fillColor=none;top=0;left=0;bottom=0;right=0;align=left;spacingLeft=6;overflow=hidden;whiteSpace=wrap;html=1;" vertex="1" parent="2hq82E3QTE7ygpO17lpo-29">
          <mxGeometry x="30" width="160" height="30" as="geometry">
            <mxRectangle width="160" height="30" as="alternateBounds" />
          </mxGeometry>
        </mxCell>
        <mxCell id="2hq82E3QTE7ygpO17lpo-32" style="shape=tableRow;horizontal=0;startSize=0;swimlaneHead=0;swimlaneBody=0;fillColor=none;collapsible=0;dropTarget=0;points=[[0,0.5],[1,0.5]];portConstraint=eastwest;top=0;left=0;right=0;bottom=0;" vertex="1" parent="2hq82E3QTE7ygpO17lpo-1">
          <mxGeometry y="334" width="190" height="30" as="geometry" />
        </mxCell>
        <mxCell id="2hq82E3QTE7ygpO17lpo-33" style="shape=partialRectangle;connectable=0;fillColor=none;top=0;left=0;bottom=0;right=0;editable=1;overflow=hidden;whiteSpace=wrap;html=1;" vertex="1" parent="2hq82E3QTE7ygpO17lpo-32">
          <mxGeometry width="30" height="30" as="geometry">
            <mxRectangle width="30" height="30" as="alternateBounds" />
          </mxGeometry>
        </mxCell>
        <mxCell id="2hq82E3QTE7ygpO17lpo-34" value="EstimatedBudget" style="shape=partialRectangle;connectable=0;fillColor=none;top=0;left=0;bottom=0;right=0;align=left;spacingLeft=6;overflow=hidden;whiteSpace=wrap;html=1;" vertex="1" parent="2hq82E3QTE7ygpO17lpo-32">
          <mxGeometry x="30" width="160" height="30" as="geometry">
            <mxRectangle width="160" height="30" as="alternateBounds" />
          </mxGeometry>
        </mxCell>
        <mxCell id="2hq82E3QTE7ygpO17lpo-35" style="shape=tableRow;horizontal=0;startSize=0;swimlaneHead=0;swimlaneBody=0;fillColor=none;collapsible=0;dropTarget=0;points=[[0,0.5],[1,0.5]];portConstraint=eastwest;top=0;left=0;right=0;bottom=0;" vertex="1" parent="2hq82E3QTE7ygpO17lpo-1">
          <mxGeometry y="364" width="190" height="30" as="geometry" />
        </mxCell>
        <mxCell id="2hq82E3QTE7ygpO17lpo-36" style="shape=partialRectangle;connectable=0;fillColor=none;top=0;left=0;bottom=0;right=0;editable=1;overflow=hidden;whiteSpace=wrap;html=1;" vertex="1" parent="2hq82E3QTE7ygpO17lpo-35">
          <mxGeometry width="30" height="30" as="geometry">
            <mxRectangle width="30" height="30" as="alternateBounds" />
          </mxGeometry>
        </mxCell>
        <mxCell id="2hq82E3QTE7ygpO17lpo-37" value="ActualCost" style="shape=partialRectangle;connectable=0;fillColor=none;top=0;left=0;bottom=0;right=0;align=left;spacingLeft=6;overflow=hidden;whiteSpace=wrap;html=1;" vertex="1" parent="2hq82E3QTE7ygpO17lpo-35">
          <mxGeometry x="30" width="160" height="30" as="geometry">
            <mxRectangle width="160" height="30" as="alternateBounds" />
          </mxGeometry>
        </mxCell>
        <mxCell id="2hq82E3QTE7ygpO17lpo-38" style="shape=tableRow;horizontal=0;startSize=0;swimlaneHead=0;swimlaneBody=0;fillColor=none;collapsible=0;dropTarget=0;points=[[0,0.5],[1,0.5]];portConstraint=eastwest;top=0;left=0;right=0;bottom=0;" vertex="1" parent="2hq82E3QTE7ygpO17lpo-1">
          <mxGeometry y="394" width="190" height="30" as="geometry" />
        </mxCell>
        <mxCell id="2hq82E3QTE7ygpO17lpo-39" style="shape=partialRectangle;connectable=0;fillColor=none;top=0;left=0;bottom=0;right=0;editable=1;overflow=hidden;whiteSpace=wrap;html=1;" vertex="1" parent="2hq82E3QTE7ygpO17lpo-38">
          <mxGeometry width="30" height="30" as="geometry">
            <mxRectangle width="30" height="30" as="alternateBounds" />
          </mxGeometry>
        </mxCell>
        <mxCell id="2hq82E3QTE7ygpO17lpo-40" value="MaterialsCost" style="shape=partialRectangle;connectable=0;fillColor=none;top=0;left=0;bottom=0;right=0;align=left;spacingLeft=6;overflow=hidden;whiteSpace=wrap;html=1;" vertex="1" parent="2hq82E3QTE7ygpO17lpo-38">
          <mxGeometry x="30" width="160" height="30" as="geometry">
            <mxRectangle width="160" height="30" as="alternateBounds" />
          </mxGeometry>
        </mxCell>
        <mxCell id="2hq82E3QTE7ygpO17lpo-41" style="shape=tableRow;horizontal=0;startSize=0;swimlaneHead=0;swimlaneBody=0;fillColor=none;collapsible=0;dropTarget=0;points=[[0,0.5],[1,0.5]];portConstraint=eastwest;top=0;left=0;right=0;bottom=0;" vertex="1" parent="2hq82E3QTE7ygpO17lpo-1">
          <mxGeometry y="424" width="190" height="30" as="geometry" />
        </mxCell>
        <mxCell id="2hq82E3QTE7ygpO17lpo-42" style="shape=partialRectangle;connectable=0;fillColor=none;top=0;left=0;bottom=0;right=0;editable=1;overflow=hidden;whiteSpace=wrap;html=1;" vertex="1" parent="2hq82E3QTE7ygpO17lpo-41">
          <mxGeometry width="30" height="30" as="geometry">
            <mxRectangle width="30" height="30" as="alternateBounds" />
          </mxGeometry>
        </mxCell>
        <mxCell id="2hq82E3QTE7ygpO17lpo-43" value="LaborCost" style="shape=partialRectangle;connectable=0;fillColor=none;top=0;left=0;bottom=0;right=0;align=left;spacingLeft=6;overflow=hidden;whiteSpace=wrap;html=1;" vertex="1" parent="2hq82E3QTE7ygpO17lpo-41">
          <mxGeometry x="30" width="160" height="30" as="geometry">
            <mxRectangle width="160" height="30" as="alternateBounds" />
          </mxGeometry>
        </mxCell>
        <mxCell id="2hq82E3QTE7ygpO17lpo-44" style="shape=tableRow;horizontal=0;startSize=0;swimlaneHead=0;swimlaneBody=0;fillColor=none;collapsible=0;dropTarget=0;points=[[0,0.5],[1,0.5]];portConstraint=eastwest;top=0;left=0;right=0;bottom=0;" vertex="1" parent="2hq82E3QTE7ygpO17lpo-1">
          <mxGeometry y="454" width="190" height="30" as="geometry" />
        </mxCell>
        <mxCell id="2hq82E3QTE7ygpO17lpo-45" style="shape=partialRectangle;connectable=0;fillColor=none;top=0;left=0;bottom=0;right=0;editable=1;overflow=hidden;whiteSpace=wrap;html=1;" vertex="1" parent="2hq82E3QTE7ygpO17lpo-44">
          <mxGeometry width="30" height="30" as="geometry">
            <mxRectangle width="30" height="30" as="alternateBounds" />
          </mxGeometry>
        </mxCell>
        <mxCell id="2hq82E3QTE7ygpO17lpo-46" value="EquipmentCost" style="shape=partialRectangle;connectable=0;fillColor=none;top=0;left=0;bottom=0;right=0;align=left;spacingLeft=6;overflow=hidden;whiteSpace=wrap;html=1;" vertex="1" parent="2hq82E3QTE7ygpO17lpo-44">
          <mxGeometry x="30" width="160" height="30" as="geometry">
            <mxRectangle width="160" height="30" as="alternateBounds" />
          </mxGeometry>
        </mxCell>
        <mxCell id="2hq82E3QTE7ygpO17lpo-47" style="shape=tableRow;horizontal=0;startSize=0;swimlaneHead=0;swimlaneBody=0;fillColor=none;collapsible=0;dropTarget=0;points=[[0,0.5],[1,0.5]];portConstraint=eastwest;top=0;left=0;right=0;bottom=0;" vertex="1" parent="2hq82E3QTE7ygpO17lpo-1">
          <mxGeometry y="484" width="190" height="30" as="geometry" />
        </mxCell>
        <mxCell id="2hq82E3QTE7ygpO17lpo-48" style="shape=partialRectangle;connectable=0;fillColor=none;top=0;left=0;bottom=0;right=0;editable=1;overflow=hidden;whiteSpace=wrap;html=1;" vertex="1" parent="2hq82E3QTE7ygpO17lpo-47">
          <mxGeometry width="30" height="30" as="geometry">
            <mxRectangle width="30" height="30" as="alternateBounds" />
          </mxGeometry>
        </mxCell>
        <mxCell id="2hq82E3QTE7ygpO17lpo-49" value="Permitfees" style="shape=partialRectangle;connectable=0;fillColor=none;top=0;left=0;bottom=0;right=0;align=left;spacingLeft=6;overflow=hidden;whiteSpace=wrap;html=1;" vertex="1" parent="2hq82E3QTE7ygpO17lpo-47">
          <mxGeometry x="30" width="160" height="30" as="geometry">
            <mxRectangle width="160" height="30" as="alternateBounds" />
          </mxGeometry>
        </mxCell>
        <mxCell id="2hq82E3QTE7ygpO17lpo-50" style="shape=tableRow;horizontal=0;startSize=0;swimlaneHead=0;swimlaneBody=0;fillColor=none;collapsible=0;dropTarget=0;points=[[0,0.5],[1,0.5]];portConstraint=eastwest;top=0;left=0;right=0;bottom=0;" vertex="1" parent="2hq82E3QTE7ygpO17lpo-1">
          <mxGeometry y="514" width="190" height="30" as="geometry" />
        </mxCell>
        <mxCell id="2hq82E3QTE7ygpO17lpo-51" style="shape=partialRectangle;connectable=0;fillColor=none;top=0;left=0;bottom=0;right=0;editable=1;overflow=hidden;whiteSpace=wrap;html=1;" vertex="1" parent="2hq82E3QTE7ygpO17lpo-50">
          <mxGeometry width="30" height="30" as="geometry">
            <mxRectangle width="30" height="30" as="alternateBounds" />
          </mxGeometry>
        </mxCell>
        <mxCell id="2hq82E3QTE7ygpO17lpo-52" value="InspectionFees" style="shape=partialRectangle;connectable=0;fillColor=none;top=0;left=0;bottom=0;right=0;align=left;spacingLeft=6;overflow=hidden;whiteSpace=wrap;html=1;" vertex="1" parent="2hq82E3QTE7ygpO17lpo-50">
          <mxGeometry x="30" width="160" height="30" as="geometry">
            <mxRectangle width="160" height="30" as="alternateBounds" />
          </mxGeometry>
        </mxCell>
        <mxCell id="2hq82E3QTE7ygpO17lpo-53" style="shape=tableRow;horizontal=0;startSize=0;swimlaneHead=0;swimlaneBody=0;fillColor=none;collapsible=0;dropTarget=0;points=[[0,0.5],[1,0.5]];portConstraint=eastwest;top=0;left=0;right=0;bottom=0;" vertex="1" parent="2hq82E3QTE7ygpO17lpo-1">
          <mxGeometry y="544" width="190" height="30" as="geometry" />
        </mxCell>
        <mxCell id="2hq82E3QTE7ygpO17lpo-54" style="shape=partialRectangle;connectable=0;fillColor=none;top=0;left=0;bottom=0;right=0;editable=1;overflow=hidden;whiteSpace=wrap;html=1;" vertex="1" parent="2hq82E3QTE7ygpO17lpo-53">
          <mxGeometry width="30" height="30" as="geometry">
            <mxRectangle width="30" height="30" as="alternateBounds" />
          </mxGeometry>
        </mxCell>
        <mxCell id="2hq82E3QTE7ygpO17lpo-55" value="TeamSize" style="shape=partialRectangle;connectable=0;fillColor=none;top=0;left=0;bottom=0;right=0;align=left;spacingLeft=6;overflow=hidden;whiteSpace=wrap;html=1;" vertex="1" parent="2hq82E3QTE7ygpO17lpo-53">
          <mxGeometry x="30" width="160" height="30" as="geometry">
            <mxRectangle width="160" height="30" as="alternateBounds" />
          </mxGeometry>
        </mxCell>
        <mxCell id="2hq82E3QTE7ygpO17lpo-56" style="shape=tableRow;horizontal=0;startSize=0;swimlaneHead=0;swimlaneBody=0;fillColor=none;collapsible=0;dropTarget=0;points=[[0,0.5],[1,0.5]];portConstraint=eastwest;top=0;left=0;right=0;bottom=0;" vertex="1" parent="2hq82E3QTE7ygpO17lpo-1">
          <mxGeometry y="574" width="190" height="30" as="geometry" />
        </mxCell>
        <mxCell id="2hq82E3QTE7ygpO17lpo-57" style="shape=partialRectangle;connectable=0;fillColor=none;top=0;left=0;bottom=0;right=0;editable=1;overflow=hidden;whiteSpace=wrap;html=1;" vertex="1" parent="2hq82E3QTE7ygpO17lpo-56">
          <mxGeometry width="30" height="30" as="geometry">
            <mxRectangle width="30" height="30" as="alternateBounds" />
          </mxGeometry>
        </mxCell>
        <mxCell id="2hq82E3QTE7ygpO17lpo-58" value="ChangeOrderCount" style="shape=partialRectangle;connectable=0;fillColor=none;top=0;left=0;bottom=0;right=0;align=left;spacingLeft=6;overflow=hidden;whiteSpace=wrap;html=1;" vertex="1" parent="2hq82E3QTE7ygpO17lpo-56">
          <mxGeometry x="30" width="160" height="30" as="geometry">
            <mxRectangle width="160" height="30" as="alternateBounds" />
          </mxGeometry>
        </mxCell>
        <mxCell id="2hq82E3QTE7ygpO17lpo-59" style="shape=tableRow;horizontal=0;startSize=0;swimlaneHead=0;swimlaneBody=0;fillColor=none;collapsible=0;dropTarget=0;points=[[0,0.5],[1,0.5]];portConstraint=eastwest;top=0;left=0;right=0;bottom=0;" vertex="1" parent="2hq82E3QTE7ygpO17lpo-1">
          <mxGeometry y="604" width="190" height="30" as="geometry" />
        </mxCell>
        <mxCell id="2hq82E3QTE7ygpO17lpo-60" style="shape=partialRectangle;connectable=0;fillColor=none;top=0;left=0;bottom=0;right=0;editable=1;overflow=hidden;whiteSpace=wrap;html=1;" vertex="1" parent="2hq82E3QTE7ygpO17lpo-59">
          <mxGeometry width="30" height="30" as="geometry">
            <mxRectangle width="30" height="30" as="alternateBounds" />
          </mxGeometry>
        </mxCell>
        <mxCell id="2hq82E3QTE7ygpO17lpo-61" value="SafetyIncidentsCount" style="shape=partialRectangle;connectable=0;fillColor=none;top=0;left=0;bottom=0;right=0;align=left;spacingLeft=6;overflow=hidden;whiteSpace=wrap;html=1;" vertex="1" parent="2hq82E3QTE7ygpO17lpo-59">
          <mxGeometry x="30" width="160" height="30" as="geometry">
            <mxRectangle width="160" height="30" as="alternateBounds" />
          </mxGeometry>
        </mxCell>
        <mxCell id="2hq82E3QTE7ygpO17lpo-62" style="shape=tableRow;horizontal=0;startSize=0;swimlaneHead=0;swimlaneBody=0;fillColor=none;collapsible=0;dropTarget=0;points=[[0,0.5],[1,0.5]];portConstraint=eastwest;top=0;left=0;right=0;bottom=0;" vertex="1" parent="2hq82E3QTE7ygpO17lpo-1">
          <mxGeometry y="634" width="190" height="30" as="geometry" />
        </mxCell>
        <mxCell id="2hq82E3QTE7ygpO17lpo-63" style="shape=partialRectangle;connectable=0;fillColor=none;top=0;left=0;bottom=0;right=0;editable=1;overflow=hidden;whiteSpace=wrap;html=1;" vertex="1" parent="2hq82E3QTE7ygpO17lpo-62">
          <mxGeometry width="30" height="30" as="geometry">
            <mxRectangle width="30" height="30" as="alternateBounds" />
          </mxGeometry>
        </mxCell>
        <mxCell id="2hq82E3QTE7ygpO17lpo-64" value="ProjectDelayDays" style="shape=partialRectangle;connectable=0;fillColor=none;top=0;left=0;bottom=0;right=0;align=left;spacingLeft=6;overflow=hidden;whiteSpace=wrap;html=1;" vertex="1" parent="2hq82E3QTE7ygpO17lpo-62">
          <mxGeometry x="30" width="160" height="30" as="geometry">
            <mxRectangle width="160" height="30" as="alternateBounds" />
          </mxGeometry>
        </mxCell>
        <mxCell id="2hq82E3QTE7ygpO17lpo-65" style="shape=tableRow;horizontal=0;startSize=0;swimlaneHead=0;swimlaneBody=0;fillColor=none;collapsible=0;dropTarget=0;points=[[0,0.5],[1,0.5]];portConstraint=eastwest;top=0;left=0;right=0;bottom=0;" vertex="1" parent="2hq82E3QTE7ygpO17lpo-1">
          <mxGeometry y="664" width="190" height="30" as="geometry" />
        </mxCell>
        <mxCell id="2hq82E3QTE7ygpO17lpo-66" style="shape=partialRectangle;connectable=0;fillColor=none;top=0;left=0;bottom=0;right=0;editable=1;overflow=hidden;whiteSpace=wrap;html=1;" vertex="1" parent="2hq82E3QTE7ygpO17lpo-65">
          <mxGeometry width="30" height="30" as="geometry">
            <mxRectangle width="30" height="30" as="alternateBounds" />
          </mxGeometry>
        </mxCell>
        <mxCell id="2hq82E3QTE7ygpO17lpo-67" value="WeatherDelayDays" style="shape=partialRectangle;connectable=0;fillColor=none;top=0;left=0;bottom=0;right=0;align=left;spacingLeft=6;overflow=hidden;whiteSpace=wrap;html=1;" vertex="1" parent="2hq82E3QTE7ygpO17lpo-65">
          <mxGeometry x="30" width="160" height="30" as="geometry">
            <mxRectangle width="160" height="30" as="alternateBounds" />
          </mxGeometry>
        </mxCell>
        <mxCell id="2hq82E3QTE7ygpO17lpo-68" style="shape=tableRow;horizontal=0;startSize=0;swimlaneHead=0;swimlaneBody=0;fillColor=none;collapsible=0;dropTarget=0;points=[[0,0.5],[1,0.5]];portConstraint=eastwest;top=0;left=0;right=0;bottom=0;" vertex="1" parent="2hq82E3QTE7ygpO17lpo-1">
          <mxGeometry y="694" width="190" height="30" as="geometry" />
        </mxCell>
        <mxCell id="2hq82E3QTE7ygpO17lpo-69" style="shape=partialRectangle;connectable=0;fillColor=none;top=0;left=0;bottom=0;right=0;editable=1;overflow=hidden;whiteSpace=wrap;html=1;" vertex="1" parent="2hq82E3QTE7ygpO17lpo-68">
          <mxGeometry width="30" height="30" as="geometry">
            <mxRectangle width="30" height="30" as="alternateBounds" />
          </mxGeometry>
        </mxCell>
        <mxCell id="2hq82E3QTE7ygpO17lpo-70" value="&#xa;&lt;span style=&quot;color: rgb(240, 240, 240); font-family: Helvetica; font-size: 12px; font-style: normal; font-variant-ligatures: normal; font-variant-caps: normal; font-weight: 400; letter-spacing: normal; orphans: 2; text-align: left; text-indent: 0px; text-transform: none; widows: 2; word-spacing: 0px; -webkit-text-stroke-width: 0px; white-space: normal; background-color: rgb(27, 29, 30); text-decoration-thickness: initial; text-decoration-style: initial; text-decoration-color: initial; display: inline !important; float: none;&quot;&gt;ClientFeedbackScore&lt;/span&gt;&#xa;&#xa;" style="shape=partialRectangle;connectable=0;fillColor=none;top=0;left=0;bottom=0;right=0;align=left;spacingLeft=6;overflow=hidden;whiteSpace=wrap;html=1;" vertex="1" parent="2hq82E3QTE7ygpO17lpo-68">
          <mxGeometry x="30" width="160" height="30" as="geometry">
            <mxRectangle width="160" height="30" as="alternateBounds" />
          </mxGeometry>
        </mxCell>
        <mxCell id="2hq82E3QTE7ygpO17lpo-71" style="shape=tableRow;horizontal=0;startSize=0;swimlaneHead=0;swimlaneBody=0;fillColor=none;collapsible=0;dropTarget=0;points=[[0,0.5],[1,0.5]];portConstraint=eastwest;top=0;left=0;right=0;bottom=0;" vertex="1" parent="2hq82E3QTE7ygpO17lpo-1">
          <mxGeometry y="724" width="190" height="30" as="geometry" />
        </mxCell>
        <mxCell id="2hq82E3QTE7ygpO17lpo-72" style="shape=partialRectangle;connectable=0;fillColor=none;top=0;left=0;bottom=0;right=0;editable=1;overflow=hidden;whiteSpace=wrap;html=1;" vertex="1" parent="2hq82E3QTE7ygpO17lpo-71">
          <mxGeometry width="30" height="30" as="geometry">
            <mxRectangle width="30" height="30" as="alternateBounds" />
          </mxGeometry>
        </mxCell>
        <mxCell id="2hq82E3QTE7ygpO17lpo-73" value="QualityAuditScore" style="shape=partialRectangle;connectable=0;fillColor=none;top=0;left=0;bottom=0;right=0;align=left;spacingLeft=6;overflow=hidden;whiteSpace=wrap;html=1;" vertex="1" parent="2hq82E3QTE7ygpO17lpo-71">
          <mxGeometry x="30" width="160" height="30" as="geometry">
            <mxRectangle width="160" height="30" as="alternateBounds" />
          </mxGeometry>
        </mxCell>
        <mxCell id="2hq82E3QTE7ygpO17lpo-74" style="shape=tableRow;horizontal=0;startSize=0;swimlaneHead=0;swimlaneBody=0;fillColor=none;collapsible=0;dropTarget=0;points=[[0,0.5],[1,0.5]];portConstraint=eastwest;top=0;left=0;right=0;bottom=0;" vertex="1" parent="2hq82E3QTE7ygpO17lpo-1">
          <mxGeometry y="754" width="190" height="30" as="geometry" />
        </mxCell>
        <mxCell id="2hq82E3QTE7ygpO17lpo-75" style="shape=partialRectangle;connectable=0;fillColor=none;top=0;left=0;bottom=0;right=0;editable=1;overflow=hidden;whiteSpace=wrap;html=1;" vertex="1" parent="2hq82E3QTE7ygpO17lpo-74">
          <mxGeometry width="30" height="30" as="geometry">
            <mxRectangle width="30" height="30" as="alternateBounds" />
          </mxGeometry>
        </mxCell>
        <mxCell id="2hq82E3QTE7ygpO17lpo-76" value="EnvironmentalImpactScore" style="shape=partialRectangle;connectable=0;fillColor=none;top=0;left=0;bottom=0;right=0;align=left;spacingLeft=6;overflow=hidden;whiteSpace=wrap;html=1;" vertex="1" parent="2hq82E3QTE7ygpO17lpo-74">
          <mxGeometry x="30" width="160" height="30" as="geometry">
            <mxRectangle width="160" height="30" as="alternateBounds" />
          </mxGeometry>
        </mxCell>
        <mxCell id="2hq82E3QTE7ygpO17lpo-77" style="shape=tableRow;horizontal=0;startSize=0;swimlaneHead=0;swimlaneBody=0;fillColor=none;collapsible=0;dropTarget=0;points=[[0,0.5],[1,0.5]];portConstraint=eastwest;top=0;left=0;right=0;bottom=0;" vertex="1" parent="2hq82E3QTE7ygpO17lpo-1">
          <mxGeometry y="784" width="190" height="30" as="geometry" />
        </mxCell>
        <mxCell id="2hq82E3QTE7ygpO17lpo-78" style="shape=partialRectangle;connectable=0;fillColor=none;top=0;left=0;bottom=0;right=0;editable=1;overflow=hidden;whiteSpace=wrap;html=1;" vertex="1" parent="2hq82E3QTE7ygpO17lpo-77">
          <mxGeometry width="30" height="30" as="geometry">
            <mxRectangle width="30" height="30" as="alternateBounds" />
          </mxGeometry>
        </mxCell>
        <mxCell id="2hq82E3QTE7ygpO17lpo-79" value="EnergyEfficiencyScore" style="shape=partialRectangle;connectable=0;fillColor=none;top=0;left=0;bottom=0;right=0;align=left;spacingLeft=6;overflow=hidden;whiteSpace=wrap;html=1;" vertex="1" parent="2hq82E3QTE7ygpO17lpo-77">
          <mxGeometry x="30" width="160" height="30" as="geometry">
            <mxRectangle width="160" height="30" as="alternateBounds" />
          </mxGeometry>
        </mxCell>
        <mxCell id="2hq82E3QTE7ygpO17lpo-80" style="shape=tableRow;horizontal=0;startSize=0;swimlaneHead=0;swimlaneBody=0;fillColor=none;collapsible=0;dropTarget=0;points=[[0,0.5],[1,0.5]];portConstraint=eastwest;top=0;left=0;right=0;bottom=0;" vertex="1" parent="2hq82E3QTE7ygpO17lpo-1">
          <mxGeometry y="814" width="190" height="30" as="geometry" />
        </mxCell>
        <mxCell id="2hq82E3QTE7ygpO17lpo-81" style="shape=partialRectangle;connectable=0;fillColor=none;top=0;left=0;bottom=0;right=0;editable=1;overflow=hidden;whiteSpace=wrap;html=1;" vertex="1" parent="2hq82E3QTE7ygpO17lpo-80">
          <mxGeometry width="30" height="30" as="geometry">
            <mxRectangle width="30" height="30" as="alternateBounds" />
          </mxGeometry>
        </mxCell>
        <mxCell id="2hq82E3QTE7ygpO17lpo-82" value="InnovationScore" style="shape=partialRectangle;connectable=0;fillColor=none;top=0;left=0;bottom=0;right=0;align=left;spacingLeft=6;overflow=hidden;whiteSpace=wrap;html=1;" vertex="1" parent="2hq82E3QTE7ygpO17lpo-80">
          <mxGeometry x="30" width="160" height="30" as="geometry">
            <mxRectangle width="160" height="30" as="alternateBounds" />
          </mxGeometry>
        </mxCell>
        <mxCell id="2hq82E3QTE7ygpO17lpo-83" style="shape=tableRow;horizontal=0;startSize=0;swimlaneHead=0;swimlaneBody=0;fillColor=none;collapsible=0;dropTarget=0;points=[[0,0.5],[1,0.5]];portConstraint=eastwest;top=0;left=0;right=0;bottom=0;" vertex="1" parent="2hq82E3QTE7ygpO17lpo-1">
          <mxGeometry y="844" width="190" height="30" as="geometry" />
        </mxCell>
        <mxCell id="2hq82E3QTE7ygpO17lpo-84" style="shape=partialRectangle;connectable=0;fillColor=none;top=0;left=0;bottom=0;right=0;editable=1;overflow=hidden;whiteSpace=wrap;html=1;" vertex="1" parent="2hq82E3QTE7ygpO17lpo-83">
          <mxGeometry width="30" height="30" as="geometry">
            <mxRectangle width="30" height="30" as="alternateBounds" />
          </mxGeometry>
        </mxCell>
        <mxCell id="2hq82E3QTE7ygpO17lpo-85" value="CommunityImpactScore" style="shape=partialRectangle;connectable=0;fillColor=none;top=0;left=0;bottom=0;right=0;align=left;spacingLeft=6;overflow=hidden;whiteSpace=wrap;html=1;" vertex="1" parent="2hq82E3QTE7ygpO17lpo-83">
          <mxGeometry x="30" width="160" height="30" as="geometry">
            <mxRectangle width="160" height="30" as="alternateBounds" />
          </mxGeometry>
        </mxCell>
        <mxCell id="2hq82E3QTE7ygpO17lpo-86" style="shape=tableRow;horizontal=0;startSize=0;swimlaneHead=0;swimlaneBody=0;fillColor=none;collapsible=0;dropTarget=0;points=[[0,0.5],[1,0.5]];portConstraint=eastwest;top=0;left=0;right=0;bottom=0;" vertex="1" parent="2hq82E3QTE7ygpO17lpo-1">
          <mxGeometry y="874" width="190" height="30" as="geometry" />
        </mxCell>
        <mxCell id="2hq82E3QTE7ygpO17lpo-87" style="shape=partialRectangle;connectable=0;fillColor=none;top=0;left=0;bottom=0;right=0;editable=1;overflow=hidden;whiteSpace=wrap;html=1;" vertex="1" parent="2hq82E3QTE7ygpO17lpo-86">
          <mxGeometry width="30" height="30" as="geometry">
            <mxRectangle width="30" height="30" as="alternateBounds" />
          </mxGeometry>
        </mxCell>
        <mxCell id="2hq82E3QTE7ygpO17lpo-88" value="ROI" style="shape=partialRectangle;connectable=0;fillColor=none;top=0;left=0;bottom=0;right=0;align=left;spacingLeft=6;overflow=hidden;whiteSpace=wrap;html=1;" vertex="1" parent="2hq82E3QTE7ygpO17lpo-86">
          <mxGeometry x="30" width="160" height="30" as="geometry">
            <mxRectangle width="160" height="30" as="alternateBounds" />
          </mxGeometry>
        </mxCell>
        <mxCell id="2hq82E3QTE7ygpO17lpo-89" value="Client" style="shape=table;startSize=30;container=1;collapsible=1;childLayout=tableLayout;fixedRows=1;rowLines=0;fontStyle=1;align=center;resizeLast=1;html=1;" vertex="1" parent="1">
          <mxGeometry x="870" y="400" width="180" height="90" as="geometry" />
        </mxCell>
        <mxCell id="2hq82E3QTE7ygpO17lpo-90" value="" style="shape=tableRow;horizontal=0;startSize=0;swimlaneHead=0;swimlaneBody=0;fillColor=none;collapsible=0;dropTarget=0;points=[[0,0.5],[1,0.5]];portConstraint=eastwest;top=0;left=0;right=0;bottom=1;" vertex="1" parent="2hq82E3QTE7ygpO17lpo-89">
          <mxGeometry y="30" width="180" height="30" as="geometry" />
        </mxCell>
        <mxCell id="2hq82E3QTE7ygpO17lpo-91" value="PK" style="shape=partialRectangle;connectable=0;fillColor=none;top=0;left=0;bottom=0;right=0;fontStyle=1;overflow=hidden;whiteSpace=wrap;html=1;" vertex="1" parent="2hq82E3QTE7ygpO17lpo-90">
          <mxGeometry width="30" height="30" as="geometry">
            <mxRectangle width="30" height="30" as="alternateBounds" />
          </mxGeometry>
        </mxCell>
        <mxCell id="2hq82E3QTE7ygpO17lpo-92" value="ClientID" style="shape=partialRectangle;connectable=0;fillColor=none;top=0;left=0;bottom=0;right=0;align=left;spacingLeft=6;fontStyle=5;overflow=hidden;whiteSpace=wrap;html=1;" vertex="1" parent="2hq82E3QTE7ygpO17lpo-90">
          <mxGeometry x="30" width="150" height="30" as="geometry">
            <mxRectangle width="150" height="30" as="alternateBounds" />
          </mxGeometry>
        </mxCell>
        <mxCell id="2hq82E3QTE7ygpO17lpo-93" value="" style="shape=tableRow;horizontal=0;startSize=0;swimlaneHead=0;swimlaneBody=0;fillColor=none;collapsible=0;dropTarget=0;points=[[0,0.5],[1,0.5]];portConstraint=eastwest;top=0;left=0;right=0;bottom=0;" vertex="1" parent="2hq82E3QTE7ygpO17lpo-89">
          <mxGeometry y="60" width="180" height="30" as="geometry" />
        </mxCell>
        <mxCell id="2hq82E3QTE7ygpO17lpo-94" value="" style="shape=partialRectangle;connectable=0;fillColor=none;top=0;left=0;bottom=0;right=0;editable=1;overflow=hidden;whiteSpace=wrap;html=1;" vertex="1" parent="2hq82E3QTE7ygpO17lpo-93">
          <mxGeometry width="30" height="30" as="geometry">
            <mxRectangle width="30" height="30" as="alternateBounds" />
          </mxGeometry>
        </mxCell>
        <mxCell id="2hq82E3QTE7ygpO17lpo-95" value="ClientName" style="shape=partialRectangle;connectable=0;fillColor=none;top=0;left=0;bottom=0;right=0;align=left;spacingLeft=6;overflow=hidden;whiteSpace=wrap;html=1;" vertex="1" parent="2hq82E3QTE7ygpO17lpo-93">
          <mxGeometry x="30" width="150" height="30" as="geometry">
            <mxRectangle width="150" height="30" as="alternateBounds" />
          </mxGeometry>
        </mxCell>
        <mxCell id="2hq82E3QTE7ygpO17lpo-96" value="ProjectType" style="shape=table;startSize=30;container=1;collapsible=1;childLayout=tableLayout;fixedRows=1;rowLines=0;fontStyle=1;align=center;resizeLast=1;html=1;" vertex="1" parent="1">
          <mxGeometry x="1480" y="280" width="180" height="90" as="geometry" />
        </mxCell>
        <mxCell id="2hq82E3QTE7ygpO17lpo-97" value="" style="shape=tableRow;horizontal=0;startSize=0;swimlaneHead=0;swimlaneBody=0;fillColor=none;collapsible=0;dropTarget=0;points=[[0,0.5],[1,0.5]];portConstraint=eastwest;top=0;left=0;right=0;bottom=1;" vertex="1" parent="2hq82E3QTE7ygpO17lpo-96">
          <mxGeometry y="30" width="180" height="30" as="geometry" />
        </mxCell>
        <mxCell id="2hq82E3QTE7ygpO17lpo-98" value="PK" style="shape=partialRectangle;connectable=0;fillColor=none;top=0;left=0;bottom=0;right=0;fontStyle=1;overflow=hidden;whiteSpace=wrap;html=1;" vertex="1" parent="2hq82E3QTE7ygpO17lpo-97">
          <mxGeometry width="30" height="30" as="geometry">
            <mxRectangle width="30" height="30" as="alternateBounds" />
          </mxGeometry>
        </mxCell>
        <mxCell id="2hq82E3QTE7ygpO17lpo-99" value="ProjectTypeID" style="shape=partialRectangle;connectable=0;fillColor=none;top=0;left=0;bottom=0;right=0;align=left;spacingLeft=6;fontStyle=5;overflow=hidden;whiteSpace=wrap;html=1;" vertex="1" parent="2hq82E3QTE7ygpO17lpo-97">
          <mxGeometry x="30" width="150" height="30" as="geometry">
            <mxRectangle width="150" height="30" as="alternateBounds" />
          </mxGeometry>
        </mxCell>
        <mxCell id="2hq82E3QTE7ygpO17lpo-100" value="" style="shape=tableRow;horizontal=0;startSize=0;swimlaneHead=0;swimlaneBody=0;fillColor=none;collapsible=0;dropTarget=0;points=[[0,0.5],[1,0.5]];portConstraint=eastwest;top=0;left=0;right=0;bottom=0;" vertex="1" parent="2hq82E3QTE7ygpO17lpo-96">
          <mxGeometry y="60" width="180" height="30" as="geometry" />
        </mxCell>
        <mxCell id="2hq82E3QTE7ygpO17lpo-101" value="" style="shape=partialRectangle;connectable=0;fillColor=none;top=0;left=0;bottom=0;right=0;editable=1;overflow=hidden;whiteSpace=wrap;html=1;" vertex="1" parent="2hq82E3QTE7ygpO17lpo-100">
          <mxGeometry width="30" height="30" as="geometry">
            <mxRectangle width="30" height="30" as="alternateBounds" />
          </mxGeometry>
        </mxCell>
        <mxCell id="2hq82E3QTE7ygpO17lpo-102" value="ProjectType" style="shape=partialRectangle;connectable=0;fillColor=none;top=0;left=0;bottom=0;right=0;align=left;spacingLeft=6;overflow=hidden;whiteSpace=wrap;html=1;" vertex="1" parent="2hq82E3QTE7ygpO17lpo-100">
          <mxGeometry x="30" width="150" height="30" as="geometry">
            <mxRectangle width="150" height="30" as="alternateBounds" />
          </mxGeometry>
        </mxCell>
        <mxCell id="2hq82E3QTE7ygpO17lpo-103" value="Contractor" style="shape=table;startSize=30;container=1;collapsible=1;childLayout=tableLayout;fixedRows=1;rowLines=0;fontStyle=1;align=center;resizeLast=1;html=1;" vertex="1" parent="1">
          <mxGeometry x="870" y="600" width="180" height="120" as="geometry" />
        </mxCell>
        <mxCell id="2hq82E3QTE7ygpO17lpo-104" value="" style="shape=tableRow;horizontal=0;startSize=0;swimlaneHead=0;swimlaneBody=0;fillColor=none;collapsible=0;dropTarget=0;points=[[0,0.5],[1,0.5]];portConstraint=eastwest;top=0;left=0;right=0;bottom=1;" vertex="1" parent="2hq82E3QTE7ygpO17lpo-103">
          <mxGeometry y="30" width="180" height="30" as="geometry" />
        </mxCell>
        <mxCell id="2hq82E3QTE7ygpO17lpo-105" value="PK" style="shape=partialRectangle;connectable=0;fillColor=none;top=0;left=0;bottom=0;right=0;fontStyle=1;overflow=hidden;whiteSpace=wrap;html=1;" vertex="1" parent="2hq82E3QTE7ygpO17lpo-104">
          <mxGeometry width="30" height="30" as="geometry">
            <mxRectangle width="30" height="30" as="alternateBounds" />
          </mxGeometry>
        </mxCell>
        <mxCell id="2hq82E3QTE7ygpO17lpo-106" value="ContractorID" style="shape=partialRectangle;connectable=0;fillColor=none;top=0;left=0;bottom=0;right=0;align=left;spacingLeft=6;fontStyle=5;overflow=hidden;whiteSpace=wrap;html=1;" vertex="1" parent="2hq82E3QTE7ygpO17lpo-104">
          <mxGeometry x="30" width="150" height="30" as="geometry">
            <mxRectangle width="150" height="30" as="alternateBounds" />
          </mxGeometry>
        </mxCell>
        <mxCell id="2hq82E3QTE7ygpO17lpo-107" value="" style="shape=tableRow;horizontal=0;startSize=0;swimlaneHead=0;swimlaneBody=0;fillColor=none;collapsible=0;dropTarget=0;points=[[0,0.5],[1,0.5]];portConstraint=eastwest;top=0;left=0;right=0;bottom=0;" vertex="1" parent="2hq82E3QTE7ygpO17lpo-103">
          <mxGeometry y="60" width="180" height="30" as="geometry" />
        </mxCell>
        <mxCell id="2hq82E3QTE7ygpO17lpo-108" value="" style="shape=partialRectangle;connectable=0;fillColor=none;top=0;left=0;bottom=0;right=0;editable=1;overflow=hidden;whiteSpace=wrap;html=1;" vertex="1" parent="2hq82E3QTE7ygpO17lpo-107">
          <mxGeometry width="30" height="30" as="geometry">
            <mxRectangle width="30" height="30" as="alternateBounds" />
          </mxGeometry>
        </mxCell>
        <mxCell id="2hq82E3QTE7ygpO17lpo-109" value="ContractorName" style="shape=partialRectangle;connectable=0;fillColor=none;top=0;left=0;bottom=0;right=0;align=left;spacingLeft=6;overflow=hidden;whiteSpace=wrap;html=1;" vertex="1" parent="2hq82E3QTE7ygpO17lpo-107">
          <mxGeometry x="30" width="150" height="30" as="geometry">
            <mxRectangle width="150" height="30" as="alternateBounds" />
          </mxGeometry>
        </mxCell>
        <mxCell id="2hq82E3QTE7ygpO17lpo-110" value="" style="shape=tableRow;horizontal=0;startSize=0;swimlaneHead=0;swimlaneBody=0;fillColor=none;collapsible=0;dropTarget=0;points=[[0,0.5],[1,0.5]];portConstraint=eastwest;top=0;left=0;right=0;bottom=0;" vertex="1" parent="2hq82E3QTE7ygpO17lpo-103">
          <mxGeometry y="90" width="180" height="30" as="geometry" />
        </mxCell>
        <mxCell id="2hq82E3QTE7ygpO17lpo-111" value="" style="shape=partialRectangle;connectable=0;fillColor=none;top=0;left=0;bottom=0;right=0;editable=1;overflow=hidden;whiteSpace=wrap;html=1;" vertex="1" parent="2hq82E3QTE7ygpO17lpo-110">
          <mxGeometry width="30" height="30" as="geometry">
            <mxRectangle width="30" height="30" as="alternateBounds" />
          </mxGeometry>
        </mxCell>
        <mxCell id="2hq82E3QTE7ygpO17lpo-112" value="NumberOfSubcontractors" style="shape=partialRectangle;connectable=0;fillColor=none;top=0;left=0;bottom=0;right=0;align=left;spacingLeft=6;overflow=hidden;whiteSpace=wrap;html=1;" vertex="1" parent="2hq82E3QTE7ygpO17lpo-110">
          <mxGeometry x="30" width="150" height="30" as="geometry">
            <mxRectangle width="150" height="30" as="alternateBounds" />
          </mxGeometry>
        </mxCell>
        <mxCell id="2hq82E3QTE7ygpO17lpo-113" value="Manager" style="shape=table;startSize=30;container=1;collapsible=1;childLayout=tableLayout;fixedRows=1;rowLines=0;fontStyle=1;align=center;resizeLast=1;html=1;" vertex="1" parent="1">
          <mxGeometry x="870" y="220" width="180" height="90" as="geometry" />
        </mxCell>
        <mxCell id="2hq82E3QTE7ygpO17lpo-114" value="" style="shape=tableRow;horizontal=0;startSize=0;swimlaneHead=0;swimlaneBody=0;fillColor=none;collapsible=0;dropTarget=0;points=[[0,0.5],[1,0.5]];portConstraint=eastwest;top=0;left=0;right=0;bottom=1;" vertex="1" parent="2hq82E3QTE7ygpO17lpo-113">
          <mxGeometry y="30" width="180" height="30" as="geometry" />
        </mxCell>
        <mxCell id="2hq82E3QTE7ygpO17lpo-115" value="PK" style="shape=partialRectangle;connectable=0;fillColor=none;top=0;left=0;bottom=0;right=0;fontStyle=1;overflow=hidden;whiteSpace=wrap;html=1;" vertex="1" parent="2hq82E3QTE7ygpO17lpo-114">
          <mxGeometry width="30" height="30" as="geometry">
            <mxRectangle width="30" height="30" as="alternateBounds" />
          </mxGeometry>
        </mxCell>
        <mxCell id="2hq82E3QTE7ygpO17lpo-116" value="ManagerID" style="shape=partialRectangle;connectable=0;fillColor=none;top=0;left=0;bottom=0;right=0;align=left;spacingLeft=6;fontStyle=5;overflow=hidden;whiteSpace=wrap;html=1;" vertex="1" parent="2hq82E3QTE7ygpO17lpo-114">
          <mxGeometry x="30" width="150" height="30" as="geometry">
            <mxRectangle width="150" height="30" as="alternateBounds" />
          </mxGeometry>
        </mxCell>
        <mxCell id="2hq82E3QTE7ygpO17lpo-117" value="" style="shape=tableRow;horizontal=0;startSize=0;swimlaneHead=0;swimlaneBody=0;fillColor=none;collapsible=0;dropTarget=0;points=[[0,0.5],[1,0.5]];portConstraint=eastwest;top=0;left=0;right=0;bottom=0;" vertex="1" parent="2hq82E3QTE7ygpO17lpo-113">
          <mxGeometry y="60" width="180" height="30" as="geometry" />
        </mxCell>
        <mxCell id="2hq82E3QTE7ygpO17lpo-118" value="" style="shape=partialRectangle;connectable=0;fillColor=none;top=0;left=0;bottom=0;right=0;editable=1;overflow=hidden;whiteSpace=wrap;html=1;" vertex="1" parent="2hq82E3QTE7ygpO17lpo-117">
          <mxGeometry width="30" height="30" as="geometry">
            <mxRectangle width="30" height="30" as="alternateBounds" />
          </mxGeometry>
        </mxCell>
        <mxCell id="2hq82E3QTE7ygpO17lpo-119" value="ManagerName" style="shape=partialRectangle;connectable=0;fillColor=none;top=0;left=0;bottom=0;right=0;align=left;spacingLeft=6;overflow=hidden;whiteSpace=wrap;html=1;" vertex="1" parent="2hq82E3QTE7ygpO17lpo-117">
          <mxGeometry x="30" width="150" height="30" as="geometry">
            <mxRectangle width="150" height="30" as="alternateBounds" />
          </mxGeometry>
        </mxCell>
        <mxCell id="2hq82E3QTE7ygpO17lpo-120" value="Location" style="shape=table;startSize=30;container=1;collapsible=1;childLayout=tableLayout;fixedRows=1;rowLines=0;fontStyle=1;align=center;resizeLast=1;html=1;" vertex="1" parent="1">
          <mxGeometry x="1480" y="490" width="180" height="90" as="geometry" />
        </mxCell>
        <mxCell id="2hq82E3QTE7ygpO17lpo-121" value="" style="shape=tableRow;horizontal=0;startSize=0;swimlaneHead=0;swimlaneBody=0;fillColor=none;collapsible=0;dropTarget=0;points=[[0,0.5],[1,0.5]];portConstraint=eastwest;top=0;left=0;right=0;bottom=1;" vertex="1" parent="2hq82E3QTE7ygpO17lpo-120">
          <mxGeometry y="30" width="180" height="30" as="geometry" />
        </mxCell>
        <mxCell id="2hq82E3QTE7ygpO17lpo-122" value="PK" style="shape=partialRectangle;connectable=0;fillColor=none;top=0;left=0;bottom=0;right=0;fontStyle=1;overflow=hidden;whiteSpace=wrap;html=1;" vertex="1" parent="2hq82E3QTE7ygpO17lpo-121">
          <mxGeometry width="30" height="30" as="geometry">
            <mxRectangle width="30" height="30" as="alternateBounds" />
          </mxGeometry>
        </mxCell>
        <mxCell id="2hq82E3QTE7ygpO17lpo-123" value="LocationID" style="shape=partialRectangle;connectable=0;fillColor=none;top=0;left=0;bottom=0;right=0;align=left;spacingLeft=6;fontStyle=5;overflow=hidden;whiteSpace=wrap;html=1;" vertex="1" parent="2hq82E3QTE7ygpO17lpo-121">
          <mxGeometry x="30" width="150" height="30" as="geometry">
            <mxRectangle width="150" height="30" as="alternateBounds" />
          </mxGeometry>
        </mxCell>
        <mxCell id="2hq82E3QTE7ygpO17lpo-124" value="" style="shape=tableRow;horizontal=0;startSize=0;swimlaneHead=0;swimlaneBody=0;fillColor=none;collapsible=0;dropTarget=0;points=[[0,0.5],[1,0.5]];portConstraint=eastwest;top=0;left=0;right=0;bottom=0;" vertex="1" parent="2hq82E3QTE7ygpO17lpo-120">
          <mxGeometry y="60" width="180" height="30" as="geometry" />
        </mxCell>
        <mxCell id="2hq82E3QTE7ygpO17lpo-125" value="" style="shape=partialRectangle;connectable=0;fillColor=none;top=0;left=0;bottom=0;right=0;editable=1;overflow=hidden;whiteSpace=wrap;html=1;" vertex="1" parent="2hq82E3QTE7ygpO17lpo-124">
          <mxGeometry width="30" height="30" as="geometry">
            <mxRectangle width="30" height="30" as="alternateBounds" />
          </mxGeometry>
        </mxCell>
        <mxCell id="2hq82E3QTE7ygpO17lpo-126" value="location" style="shape=partialRectangle;connectable=0;fillColor=none;top=0;left=0;bottom=0;right=0;align=left;spacingLeft=6;overflow=hidden;whiteSpace=wrap;html=1;" vertex="1" parent="2hq82E3QTE7ygpO17lpo-124">
          <mxGeometry x="30" width="150" height="30" as="geometry">
            <mxRectangle width="150" height="30" as="alternateBounds" />
          </mxGeometry>
        </mxCell>
        <mxCell id="2hq82E3QTE7ygpO17lpo-127" value="ProjectTypeID" style="shape=partialRectangle;connectable=0;fillColor=none;top=0;left=0;bottom=0;right=0;align=left;spacingLeft=6;overflow=hidden;whiteSpace=wrap;html=1;" vertex="1" parent="1">
          <mxGeometry x="1208" y="248" width="160" height="30" as="geometry">
            <mxRectangle width="160" height="30" as="alternateBounds" />
          </mxGeometry>
        </mxCell>
        <mxCell id="2hq82E3QTE7ygpO17lpo-128" style="edgeStyle=orthogonalEdgeStyle;rounded=0;orthogonalLoop=1;jettySize=auto;html=1;exitX=1;exitY=0.5;exitDx=0;exitDy=0;" edge="1" parent="1" source="2hq82E3QTE7ygpO17lpo-114" target="2hq82E3QTE7ygpO17lpo-14">
          <mxGeometry relative="1" as="geometry" />
        </mxCell>
        <mxCell id="2hq82E3QTE7ygpO17lpo-129" style="edgeStyle=orthogonalEdgeStyle;rounded=0;orthogonalLoop=1;jettySize=auto;html=1;exitX=1;exitY=0.5;exitDx=0;exitDy=0;entryX=0;entryY=0.5;entryDx=0;entryDy=0;" edge="1" parent="1" source="2hq82E3QTE7ygpO17lpo-90" target="2hq82E3QTE7ygpO17lpo-8">
          <mxGeometry relative="1" as="geometry" />
        </mxCell>
        <mxCell id="2hq82E3QTE7ygpO17lpo-130" style="edgeStyle=orthogonalEdgeStyle;rounded=0;orthogonalLoop=1;jettySize=auto;html=1;exitX=1;exitY=0.5;exitDx=0;exitDy=0;entryX=0;entryY=0.5;entryDx=0;entryDy=0;" edge="1" parent="1" source="2hq82E3QTE7ygpO17lpo-104" target="2hq82E3QTE7ygpO17lpo-11">
          <mxGeometry relative="1" as="geometry" />
        </mxCell>
        <mxCell id="2hq82E3QTE7ygpO17lpo-131" style="edgeStyle=orthogonalEdgeStyle;rounded=0;orthogonalLoop=1;jettySize=auto;html=1;exitX=0;exitY=0.5;exitDx=0;exitDy=0;entryX=1;entryY=0.5;entryDx=0;entryDy=0;" edge="1" parent="1" source="2hq82E3QTE7ygpO17lpo-121" target="2hq82E3QTE7ygpO17lpo-17">
          <mxGeometry relative="1" as="geometry" />
        </mxCell>
        <mxCell id="2hq82E3QTE7ygpO17lpo-132" style="edgeStyle=orthogonalEdgeStyle;rounded=0;orthogonalLoop=1;jettySize=auto;html=1;exitX=0;exitY=0.5;exitDx=0;exitDy=0;" edge="1" parent="1" source="2hq82E3QTE7ygpO17lpo-97" target="2hq82E3QTE7ygpO17lpo-5">
          <mxGeometry relative="1" as="geometry" />
        </mxCell>
      </root>
    </mxGraphModel>
  </diagram>
  <diagram id="cJfRNzoLD2gUzAgTbsVL" name="Page-2">
    <mxGraphModel dx="837" dy="1033" grid="1" gridSize="10" guides="1" tooltips="1" connect="1" arrows="1" fold="1" page="1" pageScale="1" pageWidth="850" pageHeight="1100" math="0" shadow="0">
      <root>
        <mxCell id="0" />
        <mxCell id="1" parent="0" />
        <mxCell id="HxWIsVW0Vni7xR23pUae-1" value="Fact_Table" style="shape=table;startSize=30;container=1;collapsible=1;childLayout=tableLayout;fixedRows=1;rowLines=0;fontStyle=1;align=center;resizeLast=1;html=1;" vertex="1" parent="1">
          <mxGeometry x="1180" y="176" width="190" height="904" as="geometry" />
        </mxCell>
        <mxCell id="HxWIsVW0Vni7xR23pUae-2" value="" style="shape=tableRow;horizontal=0;startSize=0;swimlaneHead=0;swimlaneBody=0;fillColor=none;collapsible=0;dropTarget=0;points=[[0,0.5],[1,0.5]];portConstraint=eastwest;top=0;left=0;right=0;bottom=1;" vertex="1" parent="HxWIsVW0Vni7xR23pUae-1">
          <mxGeometry y="30" width="190" height="40" as="geometry" />
        </mxCell>
        <mxCell id="HxWIsVW0Vni7xR23pUae-3" value="PK" style="shape=partialRectangle;connectable=0;fillColor=none;top=0;left=0;bottom=0;right=0;fontStyle=1;overflow=hidden;whiteSpace=wrap;html=1;" vertex="1" parent="HxWIsVW0Vni7xR23pUae-2">
          <mxGeometry width="30" height="40" as="geometry">
            <mxRectangle width="30" height="40" as="alternateBounds" />
          </mxGeometry>
        </mxCell>
        <mxCell id="HxWIsVW0Vni7xR23pUae-4" value="ProjectID" style="shape=partialRectangle;connectable=0;fillColor=none;top=0;left=0;bottom=0;right=0;align=left;spacingLeft=6;fontStyle=5;overflow=hidden;whiteSpace=wrap;html=1;" vertex="1" parent="HxWIsVW0Vni7xR23pUae-2">
          <mxGeometry x="30" width="160" height="40" as="geometry">
            <mxRectangle width="160" height="40" as="alternateBounds" />
          </mxGeometry>
        </mxCell>
        <mxCell id="HxWIsVW0Vni7xR23pUae-5" value="" style="shape=tableRow;horizontal=0;startSize=0;swimlaneHead=0;swimlaneBody=0;fillColor=none;collapsible=0;dropTarget=0;points=[[0,0.5],[1,0.5]];portConstraint=eastwest;top=0;left=0;right=0;bottom=0;" vertex="1" parent="HxWIsVW0Vni7xR23pUae-1">
          <mxGeometry y="70" width="190" height="30" as="geometry" />
        </mxCell>
        <mxCell id="HxWIsVW0Vni7xR23pUae-6" value="FK" style="shape=partialRectangle;connectable=0;fillColor=none;top=0;left=0;bottom=0;right=0;editable=1;overflow=hidden;whiteSpace=wrap;html=1;" vertex="1" parent="HxWIsVW0Vni7xR23pUae-5">
          <mxGeometry width="30" height="30" as="geometry">
            <mxRectangle width="30" height="30" as="alternateBounds" />
          </mxGeometry>
        </mxCell>
        <mxCell id="HxWIsVW0Vni7xR23pUae-7" value="" style="shape=partialRectangle;connectable=0;fillColor=none;top=0;left=0;bottom=0;right=0;align=left;spacingLeft=6;overflow=hidden;whiteSpace=wrap;html=1;" vertex="1" parent="HxWIsVW0Vni7xR23pUae-5">
          <mxGeometry x="30" width="160" height="30" as="geometry">
            <mxRectangle width="160" height="30" as="alternateBounds" />
          </mxGeometry>
        </mxCell>
        <mxCell id="HxWIsVW0Vni7xR23pUae-8" style="shape=tableRow;horizontal=0;startSize=0;swimlaneHead=0;swimlaneBody=0;fillColor=none;collapsible=0;dropTarget=0;points=[[0,0.5],[1,0.5]];portConstraint=eastwest;top=0;left=0;right=0;bottom=0;" vertex="1" parent="HxWIsVW0Vni7xR23pUae-1">
          <mxGeometry y="100" width="190" height="30" as="geometry" />
        </mxCell>
        <mxCell id="HxWIsVW0Vni7xR23pUae-9" value="FK" style="shape=partialRectangle;connectable=0;fillColor=none;top=0;left=0;bottom=0;right=0;editable=1;overflow=hidden;whiteSpace=wrap;html=1;" vertex="1" parent="HxWIsVW0Vni7xR23pUae-8">
          <mxGeometry width="30" height="30" as="geometry">
            <mxRectangle width="30" height="30" as="alternateBounds" />
          </mxGeometry>
        </mxCell>
        <mxCell id="HxWIsVW0Vni7xR23pUae-10" value="ClientID" style="shape=partialRectangle;connectable=0;fillColor=none;top=0;left=0;bottom=0;right=0;align=left;spacingLeft=6;overflow=hidden;whiteSpace=wrap;html=1;" vertex="1" parent="HxWIsVW0Vni7xR23pUae-8">
          <mxGeometry x="30" width="160" height="30" as="geometry">
            <mxRectangle width="160" height="30" as="alternateBounds" />
          </mxGeometry>
        </mxCell>
        <mxCell id="HxWIsVW0Vni7xR23pUae-11" style="shape=tableRow;horizontal=0;startSize=0;swimlaneHead=0;swimlaneBody=0;fillColor=none;collapsible=0;dropTarget=0;points=[[0,0.5],[1,0.5]];portConstraint=eastwest;top=0;left=0;right=0;bottom=0;" vertex="1" parent="HxWIsVW0Vni7xR23pUae-1">
          <mxGeometry y="130" width="190" height="30" as="geometry" />
        </mxCell>
        <mxCell id="HxWIsVW0Vni7xR23pUae-12" value="FK" style="shape=partialRectangle;connectable=0;fillColor=none;top=0;left=0;bottom=0;right=0;editable=1;overflow=hidden;whiteSpace=wrap;html=1;" vertex="1" parent="HxWIsVW0Vni7xR23pUae-11">
          <mxGeometry width="30" height="30" as="geometry">
            <mxRectangle width="30" height="30" as="alternateBounds" />
          </mxGeometry>
        </mxCell>
        <mxCell id="HxWIsVW0Vni7xR23pUae-13" value="ContractorID" style="shape=partialRectangle;connectable=0;fillColor=none;top=0;left=0;bottom=0;right=0;align=left;spacingLeft=6;overflow=hidden;whiteSpace=wrap;html=1;" vertex="1" parent="HxWIsVW0Vni7xR23pUae-11">
          <mxGeometry x="30" width="160" height="30" as="geometry">
            <mxRectangle width="160" height="30" as="alternateBounds" />
          </mxGeometry>
        </mxCell>
        <mxCell id="HxWIsVW0Vni7xR23pUae-14" style="shape=tableRow;horizontal=0;startSize=0;swimlaneHead=0;swimlaneBody=0;fillColor=none;collapsible=0;dropTarget=0;points=[[0,0.5],[1,0.5]];portConstraint=eastwest;top=0;left=0;right=0;bottom=0;" vertex="1" parent="HxWIsVW0Vni7xR23pUae-1">
          <mxGeometry y="160" width="190" height="30" as="geometry" />
        </mxCell>
        <mxCell id="HxWIsVW0Vni7xR23pUae-15" value="FK" style="shape=partialRectangle;connectable=0;fillColor=none;top=0;left=0;bottom=0;right=0;editable=1;overflow=hidden;whiteSpace=wrap;html=1;" vertex="1" parent="HxWIsVW0Vni7xR23pUae-14">
          <mxGeometry width="30" height="30" as="geometry">
            <mxRectangle width="30" height="30" as="alternateBounds" />
          </mxGeometry>
        </mxCell>
        <mxCell id="HxWIsVW0Vni7xR23pUae-16" value="ManagerID" style="shape=partialRectangle;connectable=0;fillColor=none;top=0;left=0;bottom=0;right=0;align=left;spacingLeft=6;overflow=hidden;whiteSpace=wrap;html=1;" vertex="1" parent="HxWIsVW0Vni7xR23pUae-14">
          <mxGeometry x="30" width="160" height="30" as="geometry">
            <mxRectangle width="160" height="30" as="alternateBounds" />
          </mxGeometry>
        </mxCell>
        <mxCell id="HxWIsVW0Vni7xR23pUae-17" style="shape=tableRow;horizontal=0;startSize=0;swimlaneHead=0;swimlaneBody=0;fillColor=none;collapsible=0;dropTarget=0;points=[[0,0.5],[1,0.5]];portConstraint=eastwest;top=0;left=0;right=0;bottom=0;" vertex="1" parent="HxWIsVW0Vni7xR23pUae-1">
          <mxGeometry y="190" width="190" height="30" as="geometry" />
        </mxCell>
        <mxCell id="HxWIsVW0Vni7xR23pUae-18" value="FK" style="shape=partialRectangle;connectable=0;fillColor=none;top=0;left=0;bottom=0;right=0;editable=1;overflow=hidden;whiteSpace=wrap;html=1;" vertex="1" parent="HxWIsVW0Vni7xR23pUae-17">
          <mxGeometry width="30" height="30" as="geometry">
            <mxRectangle width="30" height="30" as="alternateBounds" />
          </mxGeometry>
        </mxCell>
        <mxCell id="HxWIsVW0Vni7xR23pUae-19" value="LocationID" style="shape=partialRectangle;connectable=0;fillColor=none;top=0;left=0;bottom=0;right=0;align=left;spacingLeft=6;overflow=hidden;whiteSpace=wrap;html=1;" vertex="1" parent="HxWIsVW0Vni7xR23pUae-17">
          <mxGeometry x="30" width="160" height="30" as="geometry">
            <mxRectangle width="160" height="30" as="alternateBounds" />
          </mxGeometry>
        </mxCell>
        <mxCell id="HxWIsVW0Vni7xR23pUae-142" style="shape=tableRow;horizontal=0;startSize=0;swimlaneHead=0;swimlaneBody=0;fillColor=none;collapsible=0;dropTarget=0;points=[[0,0.5],[1,0.5]];portConstraint=eastwest;top=0;left=0;right=0;bottom=0;" vertex="1" parent="HxWIsVW0Vni7xR23pUae-1">
          <mxGeometry y="220" width="190" height="30" as="geometry" />
        </mxCell>
        <mxCell id="HxWIsVW0Vni7xR23pUae-143" style="shape=partialRectangle;connectable=0;fillColor=none;top=0;left=0;bottom=0;right=0;editable=1;overflow=hidden;whiteSpace=wrap;html=1;" vertex="1" parent="HxWIsVW0Vni7xR23pUae-142">
          <mxGeometry width="30" height="30" as="geometry">
            <mxRectangle width="30" height="30" as="alternateBounds" />
          </mxGeometry>
        </mxCell>
        <mxCell id="HxWIsVW0Vni7xR23pUae-144" value="ProjectName" style="shape=partialRectangle;connectable=0;fillColor=none;top=0;left=0;bottom=0;right=0;align=left;spacingLeft=6;overflow=hidden;whiteSpace=wrap;html=1;" vertex="1" parent="HxWIsVW0Vni7xR23pUae-142">
          <mxGeometry x="30" width="160" height="30" as="geometry">
            <mxRectangle width="160" height="30" as="alternateBounds" />
          </mxGeometry>
        </mxCell>
        <mxCell id="HxWIsVW0Vni7xR23pUae-20" value="" style="shape=tableRow;horizontal=0;startSize=0;swimlaneHead=0;swimlaneBody=0;fillColor=none;collapsible=0;dropTarget=0;points=[[0,0.5],[1,0.5]];portConstraint=eastwest;top=0;left=0;right=0;bottom=0;" vertex="1" parent="HxWIsVW0Vni7xR23pUae-1">
          <mxGeometry y="250" width="190" height="24" as="geometry" />
        </mxCell>
        <mxCell id="HxWIsVW0Vni7xR23pUae-21" value="" style="shape=partialRectangle;connectable=0;fillColor=none;top=0;left=0;bottom=0;right=0;editable=1;overflow=hidden;whiteSpace=wrap;html=1;" vertex="1" parent="HxWIsVW0Vni7xR23pUae-20">
          <mxGeometry width="30" height="24" as="geometry">
            <mxRectangle width="30" height="24" as="alternateBounds" />
          </mxGeometry>
        </mxCell>
        <mxCell id="HxWIsVW0Vni7xR23pUae-22" value="ProjectStatus" style="shape=partialRectangle;connectable=0;fillColor=none;top=0;left=0;bottom=0;right=0;align=left;spacingLeft=6;overflow=hidden;whiteSpace=wrap;html=1;" vertex="1" parent="HxWIsVW0Vni7xR23pUae-20">
          <mxGeometry x="30" width="160" height="24" as="geometry">
            <mxRectangle width="160" height="24" as="alternateBounds" />
          </mxGeometry>
        </mxCell>
        <mxCell id="HxWIsVW0Vni7xR23pUae-23" style="shape=tableRow;horizontal=0;startSize=0;swimlaneHead=0;swimlaneBody=0;fillColor=none;collapsible=0;dropTarget=0;points=[[0,0.5],[1,0.5]];portConstraint=eastwest;top=0;left=0;right=0;bottom=0;" vertex="1" parent="HxWIsVW0Vni7xR23pUae-1">
          <mxGeometry y="274" width="190" height="30" as="geometry" />
        </mxCell>
        <mxCell id="HxWIsVW0Vni7xR23pUae-24" style="shape=partialRectangle;connectable=0;fillColor=none;top=0;left=0;bottom=0;right=0;editable=1;overflow=hidden;whiteSpace=wrap;html=1;" vertex="1" parent="HxWIsVW0Vni7xR23pUae-23">
          <mxGeometry width="30" height="30" as="geometry">
            <mxRectangle width="30" height="30" as="alternateBounds" />
          </mxGeometry>
        </mxCell>
        <mxCell id="HxWIsVW0Vni7xR23pUae-25" value="StartDate" style="shape=partialRectangle;connectable=0;fillColor=none;top=0;left=0;bottom=0;right=0;align=left;spacingLeft=6;overflow=hidden;whiteSpace=wrap;html=1;" vertex="1" parent="HxWIsVW0Vni7xR23pUae-23">
          <mxGeometry x="30" width="160" height="30" as="geometry">
            <mxRectangle width="160" height="30" as="alternateBounds" />
          </mxGeometry>
        </mxCell>
        <mxCell id="HxWIsVW0Vni7xR23pUae-26" style="shape=tableRow;horizontal=0;startSize=0;swimlaneHead=0;swimlaneBody=0;fillColor=none;collapsible=0;dropTarget=0;points=[[0,0.5],[1,0.5]];portConstraint=eastwest;top=0;left=0;right=0;bottom=0;" vertex="1" parent="HxWIsVW0Vni7xR23pUae-1">
          <mxGeometry y="304" width="190" height="30" as="geometry" />
        </mxCell>
        <mxCell id="HxWIsVW0Vni7xR23pUae-27" style="shape=partialRectangle;connectable=0;fillColor=none;top=0;left=0;bottom=0;right=0;editable=1;overflow=hidden;whiteSpace=wrap;html=1;" vertex="1" parent="HxWIsVW0Vni7xR23pUae-26">
          <mxGeometry width="30" height="30" as="geometry">
            <mxRectangle width="30" height="30" as="alternateBounds" />
          </mxGeometry>
        </mxCell>
        <mxCell id="HxWIsVW0Vni7xR23pUae-28" value="EndDate" style="shape=partialRectangle;connectable=0;fillColor=none;top=0;left=0;bottom=0;right=0;align=left;spacingLeft=6;overflow=hidden;whiteSpace=wrap;html=1;" vertex="1" parent="HxWIsVW0Vni7xR23pUae-26">
          <mxGeometry x="30" width="160" height="30" as="geometry">
            <mxRectangle width="160" height="30" as="alternateBounds" />
          </mxGeometry>
        </mxCell>
        <mxCell id="HxWIsVW0Vni7xR23pUae-29" style="shape=tableRow;horizontal=0;startSize=0;swimlaneHead=0;swimlaneBody=0;fillColor=none;collapsible=0;dropTarget=0;points=[[0,0.5],[1,0.5]];portConstraint=eastwest;top=0;left=0;right=0;bottom=0;" vertex="1" parent="HxWIsVW0Vni7xR23pUae-1">
          <mxGeometry y="334" width="190" height="30" as="geometry" />
        </mxCell>
        <mxCell id="HxWIsVW0Vni7xR23pUae-30" style="shape=partialRectangle;connectable=0;fillColor=none;top=0;left=0;bottom=0;right=0;editable=1;overflow=hidden;whiteSpace=wrap;html=1;" vertex="1" parent="HxWIsVW0Vni7xR23pUae-29">
          <mxGeometry width="30" height="30" as="geometry">
            <mxRectangle width="30" height="30" as="alternateBounds" />
          </mxGeometry>
        </mxCell>
        <mxCell id="HxWIsVW0Vni7xR23pUae-31" value="EstimatedBudget" style="shape=partialRectangle;connectable=0;fillColor=none;top=0;left=0;bottom=0;right=0;align=left;spacingLeft=6;overflow=hidden;whiteSpace=wrap;html=1;" vertex="1" parent="HxWIsVW0Vni7xR23pUae-29">
          <mxGeometry x="30" width="160" height="30" as="geometry">
            <mxRectangle width="160" height="30" as="alternateBounds" />
          </mxGeometry>
        </mxCell>
        <mxCell id="HxWIsVW0Vni7xR23pUae-32" style="shape=tableRow;horizontal=0;startSize=0;swimlaneHead=0;swimlaneBody=0;fillColor=none;collapsible=0;dropTarget=0;points=[[0,0.5],[1,0.5]];portConstraint=eastwest;top=0;left=0;right=0;bottom=0;" vertex="1" parent="HxWIsVW0Vni7xR23pUae-1">
          <mxGeometry y="364" width="190" height="30" as="geometry" />
        </mxCell>
        <mxCell id="HxWIsVW0Vni7xR23pUae-33" style="shape=partialRectangle;connectable=0;fillColor=none;top=0;left=0;bottom=0;right=0;editable=1;overflow=hidden;whiteSpace=wrap;html=1;" vertex="1" parent="HxWIsVW0Vni7xR23pUae-32">
          <mxGeometry width="30" height="30" as="geometry">
            <mxRectangle width="30" height="30" as="alternateBounds" />
          </mxGeometry>
        </mxCell>
        <mxCell id="HxWIsVW0Vni7xR23pUae-34" value="ActualCost" style="shape=partialRectangle;connectable=0;fillColor=none;top=0;left=0;bottom=0;right=0;align=left;spacingLeft=6;overflow=hidden;whiteSpace=wrap;html=1;" vertex="1" parent="HxWIsVW0Vni7xR23pUae-32">
          <mxGeometry x="30" width="160" height="30" as="geometry">
            <mxRectangle width="160" height="30" as="alternateBounds" />
          </mxGeometry>
        </mxCell>
        <mxCell id="HxWIsVW0Vni7xR23pUae-35" style="shape=tableRow;horizontal=0;startSize=0;swimlaneHead=0;swimlaneBody=0;fillColor=none;collapsible=0;dropTarget=0;points=[[0,0.5],[1,0.5]];portConstraint=eastwest;top=0;left=0;right=0;bottom=0;" vertex="1" parent="HxWIsVW0Vni7xR23pUae-1">
          <mxGeometry y="394" width="190" height="30" as="geometry" />
        </mxCell>
        <mxCell id="HxWIsVW0Vni7xR23pUae-36" style="shape=partialRectangle;connectable=0;fillColor=none;top=0;left=0;bottom=0;right=0;editable=1;overflow=hidden;whiteSpace=wrap;html=1;" vertex="1" parent="HxWIsVW0Vni7xR23pUae-35">
          <mxGeometry width="30" height="30" as="geometry">
            <mxRectangle width="30" height="30" as="alternateBounds" />
          </mxGeometry>
        </mxCell>
        <mxCell id="HxWIsVW0Vni7xR23pUae-37" value="MaterialsCost" style="shape=partialRectangle;connectable=0;fillColor=none;top=0;left=0;bottom=0;right=0;align=left;spacingLeft=6;overflow=hidden;whiteSpace=wrap;html=1;" vertex="1" parent="HxWIsVW0Vni7xR23pUae-35">
          <mxGeometry x="30" width="160" height="30" as="geometry">
            <mxRectangle width="160" height="30" as="alternateBounds" />
          </mxGeometry>
        </mxCell>
        <mxCell id="HxWIsVW0Vni7xR23pUae-38" style="shape=tableRow;horizontal=0;startSize=0;swimlaneHead=0;swimlaneBody=0;fillColor=none;collapsible=0;dropTarget=0;points=[[0,0.5],[1,0.5]];portConstraint=eastwest;top=0;left=0;right=0;bottom=0;" vertex="1" parent="HxWIsVW0Vni7xR23pUae-1">
          <mxGeometry y="424" width="190" height="30" as="geometry" />
        </mxCell>
        <mxCell id="HxWIsVW0Vni7xR23pUae-39" style="shape=partialRectangle;connectable=0;fillColor=none;top=0;left=0;bottom=0;right=0;editable=1;overflow=hidden;whiteSpace=wrap;html=1;" vertex="1" parent="HxWIsVW0Vni7xR23pUae-38">
          <mxGeometry width="30" height="30" as="geometry">
            <mxRectangle width="30" height="30" as="alternateBounds" />
          </mxGeometry>
        </mxCell>
        <mxCell id="HxWIsVW0Vni7xR23pUae-40" value="LaborCost" style="shape=partialRectangle;connectable=0;fillColor=none;top=0;left=0;bottom=0;right=0;align=left;spacingLeft=6;overflow=hidden;whiteSpace=wrap;html=1;" vertex="1" parent="HxWIsVW0Vni7xR23pUae-38">
          <mxGeometry x="30" width="160" height="30" as="geometry">
            <mxRectangle width="160" height="30" as="alternateBounds" />
          </mxGeometry>
        </mxCell>
        <mxCell id="HxWIsVW0Vni7xR23pUae-41" style="shape=tableRow;horizontal=0;startSize=0;swimlaneHead=0;swimlaneBody=0;fillColor=none;collapsible=0;dropTarget=0;points=[[0,0.5],[1,0.5]];portConstraint=eastwest;top=0;left=0;right=0;bottom=0;" vertex="1" parent="HxWIsVW0Vni7xR23pUae-1">
          <mxGeometry y="454" width="190" height="30" as="geometry" />
        </mxCell>
        <mxCell id="HxWIsVW0Vni7xR23pUae-42" style="shape=partialRectangle;connectable=0;fillColor=none;top=0;left=0;bottom=0;right=0;editable=1;overflow=hidden;whiteSpace=wrap;html=1;" vertex="1" parent="HxWIsVW0Vni7xR23pUae-41">
          <mxGeometry width="30" height="30" as="geometry">
            <mxRectangle width="30" height="30" as="alternateBounds" />
          </mxGeometry>
        </mxCell>
        <mxCell id="HxWIsVW0Vni7xR23pUae-43" value="EquipmentCost" style="shape=partialRectangle;connectable=0;fillColor=none;top=0;left=0;bottom=0;right=0;align=left;spacingLeft=6;overflow=hidden;whiteSpace=wrap;html=1;" vertex="1" parent="HxWIsVW0Vni7xR23pUae-41">
          <mxGeometry x="30" width="160" height="30" as="geometry">
            <mxRectangle width="160" height="30" as="alternateBounds" />
          </mxGeometry>
        </mxCell>
        <mxCell id="HxWIsVW0Vni7xR23pUae-44" style="shape=tableRow;horizontal=0;startSize=0;swimlaneHead=0;swimlaneBody=0;fillColor=none;collapsible=0;dropTarget=0;points=[[0,0.5],[1,0.5]];portConstraint=eastwest;top=0;left=0;right=0;bottom=0;" vertex="1" parent="HxWIsVW0Vni7xR23pUae-1">
          <mxGeometry y="484" width="190" height="30" as="geometry" />
        </mxCell>
        <mxCell id="HxWIsVW0Vni7xR23pUae-45" style="shape=partialRectangle;connectable=0;fillColor=none;top=0;left=0;bottom=0;right=0;editable=1;overflow=hidden;whiteSpace=wrap;html=1;" vertex="1" parent="HxWIsVW0Vni7xR23pUae-44">
          <mxGeometry width="30" height="30" as="geometry">
            <mxRectangle width="30" height="30" as="alternateBounds" />
          </mxGeometry>
        </mxCell>
        <mxCell id="HxWIsVW0Vni7xR23pUae-46" value="Permitfees" style="shape=partialRectangle;connectable=0;fillColor=none;top=0;left=0;bottom=0;right=0;align=left;spacingLeft=6;overflow=hidden;whiteSpace=wrap;html=1;" vertex="1" parent="HxWIsVW0Vni7xR23pUae-44">
          <mxGeometry x="30" width="160" height="30" as="geometry">
            <mxRectangle width="160" height="30" as="alternateBounds" />
          </mxGeometry>
        </mxCell>
        <mxCell id="HxWIsVW0Vni7xR23pUae-47" style="shape=tableRow;horizontal=0;startSize=0;swimlaneHead=0;swimlaneBody=0;fillColor=none;collapsible=0;dropTarget=0;points=[[0,0.5],[1,0.5]];portConstraint=eastwest;top=0;left=0;right=0;bottom=0;" vertex="1" parent="HxWIsVW0Vni7xR23pUae-1">
          <mxGeometry y="514" width="190" height="30" as="geometry" />
        </mxCell>
        <mxCell id="HxWIsVW0Vni7xR23pUae-48" style="shape=partialRectangle;connectable=0;fillColor=none;top=0;left=0;bottom=0;right=0;editable=1;overflow=hidden;whiteSpace=wrap;html=1;" vertex="1" parent="HxWIsVW0Vni7xR23pUae-47">
          <mxGeometry width="30" height="30" as="geometry">
            <mxRectangle width="30" height="30" as="alternateBounds" />
          </mxGeometry>
        </mxCell>
        <mxCell id="HxWIsVW0Vni7xR23pUae-49" value="InspectionFees" style="shape=partialRectangle;connectable=0;fillColor=none;top=0;left=0;bottom=0;right=0;align=left;spacingLeft=6;overflow=hidden;whiteSpace=wrap;html=1;" vertex="1" parent="HxWIsVW0Vni7xR23pUae-47">
          <mxGeometry x="30" width="160" height="30" as="geometry">
            <mxRectangle width="160" height="30" as="alternateBounds" />
          </mxGeometry>
        </mxCell>
        <mxCell id="HxWIsVW0Vni7xR23pUae-50" style="shape=tableRow;horizontal=0;startSize=0;swimlaneHead=0;swimlaneBody=0;fillColor=none;collapsible=0;dropTarget=0;points=[[0,0.5],[1,0.5]];portConstraint=eastwest;top=0;left=0;right=0;bottom=0;" vertex="1" parent="HxWIsVW0Vni7xR23pUae-1">
          <mxGeometry y="544" width="190" height="30" as="geometry" />
        </mxCell>
        <mxCell id="HxWIsVW0Vni7xR23pUae-51" style="shape=partialRectangle;connectable=0;fillColor=none;top=0;left=0;bottom=0;right=0;editable=1;overflow=hidden;whiteSpace=wrap;html=1;" vertex="1" parent="HxWIsVW0Vni7xR23pUae-50">
          <mxGeometry width="30" height="30" as="geometry">
            <mxRectangle width="30" height="30" as="alternateBounds" />
          </mxGeometry>
        </mxCell>
        <mxCell id="HxWIsVW0Vni7xR23pUae-52" value="TeamSize" style="shape=partialRectangle;connectable=0;fillColor=none;top=0;left=0;bottom=0;right=0;align=left;spacingLeft=6;overflow=hidden;whiteSpace=wrap;html=1;" vertex="1" parent="HxWIsVW0Vni7xR23pUae-50">
          <mxGeometry x="30" width="160" height="30" as="geometry">
            <mxRectangle width="160" height="30" as="alternateBounds" />
          </mxGeometry>
        </mxCell>
        <mxCell id="HxWIsVW0Vni7xR23pUae-53" style="shape=tableRow;horizontal=0;startSize=0;swimlaneHead=0;swimlaneBody=0;fillColor=none;collapsible=0;dropTarget=0;points=[[0,0.5],[1,0.5]];portConstraint=eastwest;top=0;left=0;right=0;bottom=0;" vertex="1" parent="HxWIsVW0Vni7xR23pUae-1">
          <mxGeometry y="574" width="190" height="30" as="geometry" />
        </mxCell>
        <mxCell id="HxWIsVW0Vni7xR23pUae-54" style="shape=partialRectangle;connectable=0;fillColor=none;top=0;left=0;bottom=0;right=0;editable=1;overflow=hidden;whiteSpace=wrap;html=1;" vertex="1" parent="HxWIsVW0Vni7xR23pUae-53">
          <mxGeometry width="30" height="30" as="geometry">
            <mxRectangle width="30" height="30" as="alternateBounds" />
          </mxGeometry>
        </mxCell>
        <mxCell id="HxWIsVW0Vni7xR23pUae-55" value="ChangeOrderCount" style="shape=partialRectangle;connectable=0;fillColor=none;top=0;left=0;bottom=0;right=0;align=left;spacingLeft=6;overflow=hidden;whiteSpace=wrap;html=1;" vertex="1" parent="HxWIsVW0Vni7xR23pUae-53">
          <mxGeometry x="30" width="160" height="30" as="geometry">
            <mxRectangle width="160" height="30" as="alternateBounds" />
          </mxGeometry>
        </mxCell>
        <mxCell id="HxWIsVW0Vni7xR23pUae-56" style="shape=tableRow;horizontal=0;startSize=0;swimlaneHead=0;swimlaneBody=0;fillColor=none;collapsible=0;dropTarget=0;points=[[0,0.5],[1,0.5]];portConstraint=eastwest;top=0;left=0;right=0;bottom=0;" vertex="1" parent="HxWIsVW0Vni7xR23pUae-1">
          <mxGeometry y="604" width="190" height="30" as="geometry" />
        </mxCell>
        <mxCell id="HxWIsVW0Vni7xR23pUae-57" style="shape=partialRectangle;connectable=0;fillColor=none;top=0;left=0;bottom=0;right=0;editable=1;overflow=hidden;whiteSpace=wrap;html=1;" vertex="1" parent="HxWIsVW0Vni7xR23pUae-56">
          <mxGeometry width="30" height="30" as="geometry">
            <mxRectangle width="30" height="30" as="alternateBounds" />
          </mxGeometry>
        </mxCell>
        <mxCell id="HxWIsVW0Vni7xR23pUae-58" value="SafetyIncidentsCount" style="shape=partialRectangle;connectable=0;fillColor=none;top=0;left=0;bottom=0;right=0;align=left;spacingLeft=6;overflow=hidden;whiteSpace=wrap;html=1;" vertex="1" parent="HxWIsVW0Vni7xR23pUae-56">
          <mxGeometry x="30" width="160" height="30" as="geometry">
            <mxRectangle width="160" height="30" as="alternateBounds" />
          </mxGeometry>
        </mxCell>
        <mxCell id="HxWIsVW0Vni7xR23pUae-59" style="shape=tableRow;horizontal=0;startSize=0;swimlaneHead=0;swimlaneBody=0;fillColor=none;collapsible=0;dropTarget=0;points=[[0,0.5],[1,0.5]];portConstraint=eastwest;top=0;left=0;right=0;bottom=0;" vertex="1" parent="HxWIsVW0Vni7xR23pUae-1">
          <mxGeometry y="634" width="190" height="30" as="geometry" />
        </mxCell>
        <mxCell id="HxWIsVW0Vni7xR23pUae-60" style="shape=partialRectangle;connectable=0;fillColor=none;top=0;left=0;bottom=0;right=0;editable=1;overflow=hidden;whiteSpace=wrap;html=1;" vertex="1" parent="HxWIsVW0Vni7xR23pUae-59">
          <mxGeometry width="30" height="30" as="geometry">
            <mxRectangle width="30" height="30" as="alternateBounds" />
          </mxGeometry>
        </mxCell>
        <mxCell id="HxWIsVW0Vni7xR23pUae-61" value="ProjectDelayDays" style="shape=partialRectangle;connectable=0;fillColor=none;top=0;left=0;bottom=0;right=0;align=left;spacingLeft=6;overflow=hidden;whiteSpace=wrap;html=1;" vertex="1" parent="HxWIsVW0Vni7xR23pUae-59">
          <mxGeometry x="30" width="160" height="30" as="geometry">
            <mxRectangle width="160" height="30" as="alternateBounds" />
          </mxGeometry>
        </mxCell>
        <mxCell id="HxWIsVW0Vni7xR23pUae-62" style="shape=tableRow;horizontal=0;startSize=0;swimlaneHead=0;swimlaneBody=0;fillColor=none;collapsible=0;dropTarget=0;points=[[0,0.5],[1,0.5]];portConstraint=eastwest;top=0;left=0;right=0;bottom=0;" vertex="1" parent="HxWIsVW0Vni7xR23pUae-1">
          <mxGeometry y="664" width="190" height="30" as="geometry" />
        </mxCell>
        <mxCell id="HxWIsVW0Vni7xR23pUae-63" style="shape=partialRectangle;connectable=0;fillColor=none;top=0;left=0;bottom=0;right=0;editable=1;overflow=hidden;whiteSpace=wrap;html=1;" vertex="1" parent="HxWIsVW0Vni7xR23pUae-62">
          <mxGeometry width="30" height="30" as="geometry">
            <mxRectangle width="30" height="30" as="alternateBounds" />
          </mxGeometry>
        </mxCell>
        <mxCell id="HxWIsVW0Vni7xR23pUae-64" value="WeatherDelayDays" style="shape=partialRectangle;connectable=0;fillColor=none;top=0;left=0;bottom=0;right=0;align=left;spacingLeft=6;overflow=hidden;whiteSpace=wrap;html=1;" vertex="1" parent="HxWIsVW0Vni7xR23pUae-62">
          <mxGeometry x="30" width="160" height="30" as="geometry">
            <mxRectangle width="160" height="30" as="alternateBounds" />
          </mxGeometry>
        </mxCell>
        <mxCell id="HxWIsVW0Vni7xR23pUae-65" style="shape=tableRow;horizontal=0;startSize=0;swimlaneHead=0;swimlaneBody=0;fillColor=none;collapsible=0;dropTarget=0;points=[[0,0.5],[1,0.5]];portConstraint=eastwest;top=0;left=0;right=0;bottom=0;" vertex="1" parent="HxWIsVW0Vni7xR23pUae-1">
          <mxGeometry y="694" width="190" height="30" as="geometry" />
        </mxCell>
        <mxCell id="HxWIsVW0Vni7xR23pUae-66" style="shape=partialRectangle;connectable=0;fillColor=none;top=0;left=0;bottom=0;right=0;editable=1;overflow=hidden;whiteSpace=wrap;html=1;" vertex="1" parent="HxWIsVW0Vni7xR23pUae-65">
          <mxGeometry width="30" height="30" as="geometry">
            <mxRectangle width="30" height="30" as="alternateBounds" />
          </mxGeometry>
        </mxCell>
        <mxCell id="HxWIsVW0Vni7xR23pUae-67" value="&#xa;&lt;span style=&quot;color: rgb(240, 240, 240); font-family: Helvetica; font-size: 12px; font-style: normal; font-variant-ligatures: normal; font-variant-caps: normal; font-weight: 400; letter-spacing: normal; orphans: 2; text-align: left; text-indent: 0px; text-transform: none; widows: 2; word-spacing: 0px; -webkit-text-stroke-width: 0px; white-space: normal; background-color: rgb(27, 29, 30); text-decoration-thickness: initial; text-decoration-style: initial; text-decoration-color: initial; display: inline !important; float: none;&quot;&gt;ClientFeedbackScore&lt;/span&gt;&#xa;&#xa;" style="shape=partialRectangle;connectable=0;fillColor=none;top=0;left=0;bottom=0;right=0;align=left;spacingLeft=6;overflow=hidden;whiteSpace=wrap;html=1;" vertex="1" parent="HxWIsVW0Vni7xR23pUae-65">
          <mxGeometry x="30" width="160" height="30" as="geometry">
            <mxRectangle width="160" height="30" as="alternateBounds" />
          </mxGeometry>
        </mxCell>
        <mxCell id="HxWIsVW0Vni7xR23pUae-68" style="shape=tableRow;horizontal=0;startSize=0;swimlaneHead=0;swimlaneBody=0;fillColor=none;collapsible=0;dropTarget=0;points=[[0,0.5],[1,0.5]];portConstraint=eastwest;top=0;left=0;right=0;bottom=0;" vertex="1" parent="HxWIsVW0Vni7xR23pUae-1">
          <mxGeometry y="724" width="190" height="30" as="geometry" />
        </mxCell>
        <mxCell id="HxWIsVW0Vni7xR23pUae-69" style="shape=partialRectangle;connectable=0;fillColor=none;top=0;left=0;bottom=0;right=0;editable=1;overflow=hidden;whiteSpace=wrap;html=1;" vertex="1" parent="HxWIsVW0Vni7xR23pUae-68">
          <mxGeometry width="30" height="30" as="geometry">
            <mxRectangle width="30" height="30" as="alternateBounds" />
          </mxGeometry>
        </mxCell>
        <mxCell id="HxWIsVW0Vni7xR23pUae-70" value="QualityAuditScore" style="shape=partialRectangle;connectable=0;fillColor=none;top=0;left=0;bottom=0;right=0;align=left;spacingLeft=6;overflow=hidden;whiteSpace=wrap;html=1;" vertex="1" parent="HxWIsVW0Vni7xR23pUae-68">
          <mxGeometry x="30" width="160" height="30" as="geometry">
            <mxRectangle width="160" height="30" as="alternateBounds" />
          </mxGeometry>
        </mxCell>
        <mxCell id="HxWIsVW0Vni7xR23pUae-71" style="shape=tableRow;horizontal=0;startSize=0;swimlaneHead=0;swimlaneBody=0;fillColor=none;collapsible=0;dropTarget=0;points=[[0,0.5],[1,0.5]];portConstraint=eastwest;top=0;left=0;right=0;bottom=0;" vertex="1" parent="HxWIsVW0Vni7xR23pUae-1">
          <mxGeometry y="754" width="190" height="30" as="geometry" />
        </mxCell>
        <mxCell id="HxWIsVW0Vni7xR23pUae-72" style="shape=partialRectangle;connectable=0;fillColor=none;top=0;left=0;bottom=0;right=0;editable=1;overflow=hidden;whiteSpace=wrap;html=1;" vertex="1" parent="HxWIsVW0Vni7xR23pUae-71">
          <mxGeometry width="30" height="30" as="geometry">
            <mxRectangle width="30" height="30" as="alternateBounds" />
          </mxGeometry>
        </mxCell>
        <mxCell id="HxWIsVW0Vni7xR23pUae-73" value="EnvironmentalImpactScore" style="shape=partialRectangle;connectable=0;fillColor=none;top=0;left=0;bottom=0;right=0;align=left;spacingLeft=6;overflow=hidden;whiteSpace=wrap;html=1;" vertex="1" parent="HxWIsVW0Vni7xR23pUae-71">
          <mxGeometry x="30" width="160" height="30" as="geometry">
            <mxRectangle width="160" height="30" as="alternateBounds" />
          </mxGeometry>
        </mxCell>
        <mxCell id="HxWIsVW0Vni7xR23pUae-74" style="shape=tableRow;horizontal=0;startSize=0;swimlaneHead=0;swimlaneBody=0;fillColor=none;collapsible=0;dropTarget=0;points=[[0,0.5],[1,0.5]];portConstraint=eastwest;top=0;left=0;right=0;bottom=0;" vertex="1" parent="HxWIsVW0Vni7xR23pUae-1">
          <mxGeometry y="784" width="190" height="30" as="geometry" />
        </mxCell>
        <mxCell id="HxWIsVW0Vni7xR23pUae-75" style="shape=partialRectangle;connectable=0;fillColor=none;top=0;left=0;bottom=0;right=0;editable=1;overflow=hidden;whiteSpace=wrap;html=1;" vertex="1" parent="HxWIsVW0Vni7xR23pUae-74">
          <mxGeometry width="30" height="30" as="geometry">
            <mxRectangle width="30" height="30" as="alternateBounds" />
          </mxGeometry>
        </mxCell>
        <mxCell id="HxWIsVW0Vni7xR23pUae-76" value="EnergyEfficiencyScore" style="shape=partialRectangle;connectable=0;fillColor=none;top=0;left=0;bottom=0;right=0;align=left;spacingLeft=6;overflow=hidden;whiteSpace=wrap;html=1;" vertex="1" parent="HxWIsVW0Vni7xR23pUae-74">
          <mxGeometry x="30" width="160" height="30" as="geometry">
            <mxRectangle width="160" height="30" as="alternateBounds" />
          </mxGeometry>
        </mxCell>
        <mxCell id="HxWIsVW0Vni7xR23pUae-77" style="shape=tableRow;horizontal=0;startSize=0;swimlaneHead=0;swimlaneBody=0;fillColor=none;collapsible=0;dropTarget=0;points=[[0,0.5],[1,0.5]];portConstraint=eastwest;top=0;left=0;right=0;bottom=0;" vertex="1" parent="HxWIsVW0Vni7xR23pUae-1">
          <mxGeometry y="814" width="190" height="30" as="geometry" />
        </mxCell>
        <mxCell id="HxWIsVW0Vni7xR23pUae-78" style="shape=partialRectangle;connectable=0;fillColor=none;top=0;left=0;bottom=0;right=0;editable=1;overflow=hidden;whiteSpace=wrap;html=1;" vertex="1" parent="HxWIsVW0Vni7xR23pUae-77">
          <mxGeometry width="30" height="30" as="geometry">
            <mxRectangle width="30" height="30" as="alternateBounds" />
          </mxGeometry>
        </mxCell>
        <mxCell id="HxWIsVW0Vni7xR23pUae-79" value="InnovationScore" style="shape=partialRectangle;connectable=0;fillColor=none;top=0;left=0;bottom=0;right=0;align=left;spacingLeft=6;overflow=hidden;whiteSpace=wrap;html=1;" vertex="1" parent="HxWIsVW0Vni7xR23pUae-77">
          <mxGeometry x="30" width="160" height="30" as="geometry">
            <mxRectangle width="160" height="30" as="alternateBounds" />
          </mxGeometry>
        </mxCell>
        <mxCell id="HxWIsVW0Vni7xR23pUae-80" style="shape=tableRow;horizontal=0;startSize=0;swimlaneHead=0;swimlaneBody=0;fillColor=none;collapsible=0;dropTarget=0;points=[[0,0.5],[1,0.5]];portConstraint=eastwest;top=0;left=0;right=0;bottom=0;" vertex="1" parent="HxWIsVW0Vni7xR23pUae-1">
          <mxGeometry y="844" width="190" height="30" as="geometry" />
        </mxCell>
        <mxCell id="HxWIsVW0Vni7xR23pUae-81" style="shape=partialRectangle;connectable=0;fillColor=none;top=0;left=0;bottom=0;right=0;editable=1;overflow=hidden;whiteSpace=wrap;html=1;" vertex="1" parent="HxWIsVW0Vni7xR23pUae-80">
          <mxGeometry width="30" height="30" as="geometry">
            <mxRectangle width="30" height="30" as="alternateBounds" />
          </mxGeometry>
        </mxCell>
        <mxCell id="HxWIsVW0Vni7xR23pUae-82" value="CommunityImpactScore" style="shape=partialRectangle;connectable=0;fillColor=none;top=0;left=0;bottom=0;right=0;align=left;spacingLeft=6;overflow=hidden;whiteSpace=wrap;html=1;" vertex="1" parent="HxWIsVW0Vni7xR23pUae-80">
          <mxGeometry x="30" width="160" height="30" as="geometry">
            <mxRectangle width="160" height="30" as="alternateBounds" />
          </mxGeometry>
        </mxCell>
        <mxCell id="HxWIsVW0Vni7xR23pUae-83" style="shape=tableRow;horizontal=0;startSize=0;swimlaneHead=0;swimlaneBody=0;fillColor=none;collapsible=0;dropTarget=0;points=[[0,0.5],[1,0.5]];portConstraint=eastwest;top=0;left=0;right=0;bottom=0;" vertex="1" parent="HxWIsVW0Vni7xR23pUae-1">
          <mxGeometry y="874" width="190" height="30" as="geometry" />
        </mxCell>
        <mxCell id="HxWIsVW0Vni7xR23pUae-84" style="shape=partialRectangle;connectable=0;fillColor=none;top=0;left=0;bottom=0;right=0;editable=1;overflow=hidden;whiteSpace=wrap;html=1;" vertex="1" parent="HxWIsVW0Vni7xR23pUae-83">
          <mxGeometry width="30" height="30" as="geometry">
            <mxRectangle width="30" height="30" as="alternateBounds" />
          </mxGeometry>
        </mxCell>
        <mxCell id="HxWIsVW0Vni7xR23pUae-85" value="ROI" style="shape=partialRectangle;connectable=0;fillColor=none;top=0;left=0;bottom=0;right=0;align=left;spacingLeft=6;overflow=hidden;whiteSpace=wrap;html=1;" vertex="1" parent="HxWIsVW0Vni7xR23pUae-83">
          <mxGeometry x="30" width="160" height="30" as="geometry">
            <mxRectangle width="160" height="30" as="alternateBounds" />
          </mxGeometry>
        </mxCell>
        <mxCell id="HxWIsVW0Vni7xR23pUae-86" value="Client" style="shape=table;startSize=30;container=1;collapsible=1;childLayout=tableLayout;fixedRows=1;rowLines=0;fontStyle=1;align=center;resizeLast=1;html=1;" vertex="1" parent="1">
          <mxGeometry x="870" y="400" width="180" height="90" as="geometry" />
        </mxCell>
        <mxCell id="HxWIsVW0Vni7xR23pUae-87" value="" style="shape=tableRow;horizontal=0;startSize=0;swimlaneHead=0;swimlaneBody=0;fillColor=none;collapsible=0;dropTarget=0;points=[[0,0.5],[1,0.5]];portConstraint=eastwest;top=0;left=0;right=0;bottom=1;" vertex="1" parent="HxWIsVW0Vni7xR23pUae-86">
          <mxGeometry y="30" width="180" height="30" as="geometry" />
        </mxCell>
        <mxCell id="HxWIsVW0Vni7xR23pUae-88" value="PK" style="shape=partialRectangle;connectable=0;fillColor=none;top=0;left=0;bottom=0;right=0;fontStyle=1;overflow=hidden;whiteSpace=wrap;html=1;" vertex="1" parent="HxWIsVW0Vni7xR23pUae-87">
          <mxGeometry width="30" height="30" as="geometry">
            <mxRectangle width="30" height="30" as="alternateBounds" />
          </mxGeometry>
        </mxCell>
        <mxCell id="HxWIsVW0Vni7xR23pUae-89" value="ClientID" style="shape=partialRectangle;connectable=0;fillColor=none;top=0;left=0;bottom=0;right=0;align=left;spacingLeft=6;fontStyle=5;overflow=hidden;whiteSpace=wrap;html=1;" vertex="1" parent="HxWIsVW0Vni7xR23pUae-87">
          <mxGeometry x="30" width="150" height="30" as="geometry">
            <mxRectangle width="150" height="30" as="alternateBounds" />
          </mxGeometry>
        </mxCell>
        <mxCell id="HxWIsVW0Vni7xR23pUae-90" value="" style="shape=tableRow;horizontal=0;startSize=0;swimlaneHead=0;swimlaneBody=0;fillColor=none;collapsible=0;dropTarget=0;points=[[0,0.5],[1,0.5]];portConstraint=eastwest;top=0;left=0;right=0;bottom=0;" vertex="1" parent="HxWIsVW0Vni7xR23pUae-86">
          <mxGeometry y="60" width="180" height="30" as="geometry" />
        </mxCell>
        <mxCell id="HxWIsVW0Vni7xR23pUae-91" value="" style="shape=partialRectangle;connectable=0;fillColor=none;top=0;left=0;bottom=0;right=0;editable=1;overflow=hidden;whiteSpace=wrap;html=1;" vertex="1" parent="HxWIsVW0Vni7xR23pUae-90">
          <mxGeometry width="30" height="30" as="geometry">
            <mxRectangle width="30" height="30" as="alternateBounds" />
          </mxGeometry>
        </mxCell>
        <mxCell id="HxWIsVW0Vni7xR23pUae-92" value="ClientName" style="shape=partialRectangle;connectable=0;fillColor=none;top=0;left=0;bottom=0;right=0;align=left;spacingLeft=6;overflow=hidden;whiteSpace=wrap;html=1;" vertex="1" parent="HxWIsVW0Vni7xR23pUae-90">
          <mxGeometry x="30" width="150" height="30" as="geometry">
            <mxRectangle width="150" height="30" as="alternateBounds" />
          </mxGeometry>
        </mxCell>
        <mxCell id="HxWIsVW0Vni7xR23pUae-93" value="ProjectType" style="shape=table;startSize=30;container=1;collapsible=1;childLayout=tableLayout;fixedRows=1;rowLines=0;fontStyle=1;align=center;resizeLast=1;html=1;" vertex="1" parent="1">
          <mxGeometry x="1480" y="280" width="180" height="90" as="geometry" />
        </mxCell>
        <mxCell id="HxWIsVW0Vni7xR23pUae-94" value="" style="shape=tableRow;horizontal=0;startSize=0;swimlaneHead=0;swimlaneBody=0;fillColor=none;collapsible=0;dropTarget=0;points=[[0,0.5],[1,0.5]];portConstraint=eastwest;top=0;left=0;right=0;bottom=1;" vertex="1" parent="HxWIsVW0Vni7xR23pUae-93">
          <mxGeometry y="30" width="180" height="30" as="geometry" />
        </mxCell>
        <mxCell id="HxWIsVW0Vni7xR23pUae-95" value="PK" style="shape=partialRectangle;connectable=0;fillColor=none;top=0;left=0;bottom=0;right=0;fontStyle=1;overflow=hidden;whiteSpace=wrap;html=1;" vertex="1" parent="HxWIsVW0Vni7xR23pUae-94">
          <mxGeometry width="30" height="30" as="geometry">
            <mxRectangle width="30" height="30" as="alternateBounds" />
          </mxGeometry>
        </mxCell>
        <mxCell id="HxWIsVW0Vni7xR23pUae-96" value="ProjectTypeID" style="shape=partialRectangle;connectable=0;fillColor=none;top=0;left=0;bottom=0;right=0;align=left;spacingLeft=6;fontStyle=5;overflow=hidden;whiteSpace=wrap;html=1;" vertex="1" parent="HxWIsVW0Vni7xR23pUae-94">
          <mxGeometry x="30" width="150" height="30" as="geometry">
            <mxRectangle width="150" height="30" as="alternateBounds" />
          </mxGeometry>
        </mxCell>
        <mxCell id="HxWIsVW0Vni7xR23pUae-97" value="" style="shape=tableRow;horizontal=0;startSize=0;swimlaneHead=0;swimlaneBody=0;fillColor=none;collapsible=0;dropTarget=0;points=[[0,0.5],[1,0.5]];portConstraint=eastwest;top=0;left=0;right=0;bottom=0;" vertex="1" parent="HxWIsVW0Vni7xR23pUae-93">
          <mxGeometry y="60" width="180" height="30" as="geometry" />
        </mxCell>
        <mxCell id="HxWIsVW0Vni7xR23pUae-98" value="" style="shape=partialRectangle;connectable=0;fillColor=none;top=0;left=0;bottom=0;right=0;editable=1;overflow=hidden;whiteSpace=wrap;html=1;" vertex="1" parent="HxWIsVW0Vni7xR23pUae-97">
          <mxGeometry width="30" height="30" as="geometry">
            <mxRectangle width="30" height="30" as="alternateBounds" />
          </mxGeometry>
        </mxCell>
        <mxCell id="HxWIsVW0Vni7xR23pUae-99" value="ProjectType" style="shape=partialRectangle;connectable=0;fillColor=none;top=0;left=0;bottom=0;right=0;align=left;spacingLeft=6;overflow=hidden;whiteSpace=wrap;html=1;" vertex="1" parent="HxWIsVW0Vni7xR23pUae-97">
          <mxGeometry x="30" width="150" height="30" as="geometry">
            <mxRectangle width="150" height="30" as="alternateBounds" />
          </mxGeometry>
        </mxCell>
        <mxCell id="HxWIsVW0Vni7xR23pUae-100" value="Contractor" style="shape=table;startSize=30;container=1;collapsible=1;childLayout=tableLayout;fixedRows=1;rowLines=0;fontStyle=1;align=center;resizeLast=1;html=1;" vertex="1" parent="1">
          <mxGeometry x="870" y="600" width="180" height="120" as="geometry" />
        </mxCell>
        <mxCell id="HxWIsVW0Vni7xR23pUae-101" value="" style="shape=tableRow;horizontal=0;startSize=0;swimlaneHead=0;swimlaneBody=0;fillColor=none;collapsible=0;dropTarget=0;points=[[0,0.5],[1,0.5]];portConstraint=eastwest;top=0;left=0;right=0;bottom=1;" vertex="1" parent="HxWIsVW0Vni7xR23pUae-100">
          <mxGeometry y="30" width="180" height="30" as="geometry" />
        </mxCell>
        <mxCell id="HxWIsVW0Vni7xR23pUae-102" value="PK" style="shape=partialRectangle;connectable=0;fillColor=none;top=0;left=0;bottom=0;right=0;fontStyle=1;overflow=hidden;whiteSpace=wrap;html=1;" vertex="1" parent="HxWIsVW0Vni7xR23pUae-101">
          <mxGeometry width="30" height="30" as="geometry">
            <mxRectangle width="30" height="30" as="alternateBounds" />
          </mxGeometry>
        </mxCell>
        <mxCell id="HxWIsVW0Vni7xR23pUae-103" value="ContractorID" style="shape=partialRectangle;connectable=0;fillColor=none;top=0;left=0;bottom=0;right=0;align=left;spacingLeft=6;fontStyle=5;overflow=hidden;whiteSpace=wrap;html=1;" vertex="1" parent="HxWIsVW0Vni7xR23pUae-101">
          <mxGeometry x="30" width="150" height="30" as="geometry">
            <mxRectangle width="150" height="30" as="alternateBounds" />
          </mxGeometry>
        </mxCell>
        <mxCell id="HxWIsVW0Vni7xR23pUae-104" value="" style="shape=tableRow;horizontal=0;startSize=0;swimlaneHead=0;swimlaneBody=0;fillColor=none;collapsible=0;dropTarget=0;points=[[0,0.5],[1,0.5]];portConstraint=eastwest;top=0;left=0;right=0;bottom=0;" vertex="1" parent="HxWIsVW0Vni7xR23pUae-100">
          <mxGeometry y="60" width="180" height="30" as="geometry" />
        </mxCell>
        <mxCell id="HxWIsVW0Vni7xR23pUae-105" value="" style="shape=partialRectangle;connectable=0;fillColor=none;top=0;left=0;bottom=0;right=0;editable=1;overflow=hidden;whiteSpace=wrap;html=1;" vertex="1" parent="HxWIsVW0Vni7xR23pUae-104">
          <mxGeometry width="30" height="30" as="geometry">
            <mxRectangle width="30" height="30" as="alternateBounds" />
          </mxGeometry>
        </mxCell>
        <mxCell id="HxWIsVW0Vni7xR23pUae-106" value="ContractorName" style="shape=partialRectangle;connectable=0;fillColor=none;top=0;left=0;bottom=0;right=0;align=left;spacingLeft=6;overflow=hidden;whiteSpace=wrap;html=1;" vertex="1" parent="HxWIsVW0Vni7xR23pUae-104">
          <mxGeometry x="30" width="150" height="30" as="geometry">
            <mxRectangle width="150" height="30" as="alternateBounds" />
          </mxGeometry>
        </mxCell>
        <mxCell id="HxWIsVW0Vni7xR23pUae-107" value="" style="shape=tableRow;horizontal=0;startSize=0;swimlaneHead=0;swimlaneBody=0;fillColor=none;collapsible=0;dropTarget=0;points=[[0,0.5],[1,0.5]];portConstraint=eastwest;top=0;left=0;right=0;bottom=0;" vertex="1" parent="HxWIsVW0Vni7xR23pUae-100">
          <mxGeometry y="90" width="180" height="30" as="geometry" />
        </mxCell>
        <mxCell id="HxWIsVW0Vni7xR23pUae-108" value="" style="shape=partialRectangle;connectable=0;fillColor=none;top=0;left=0;bottom=0;right=0;editable=1;overflow=hidden;whiteSpace=wrap;html=1;" vertex="1" parent="HxWIsVW0Vni7xR23pUae-107">
          <mxGeometry width="30" height="30" as="geometry">
            <mxRectangle width="30" height="30" as="alternateBounds" />
          </mxGeometry>
        </mxCell>
        <mxCell id="HxWIsVW0Vni7xR23pUae-109" value="NumberOfSubcontractors" style="shape=partialRectangle;connectable=0;fillColor=none;top=0;left=0;bottom=0;right=0;align=left;spacingLeft=6;overflow=hidden;whiteSpace=wrap;html=1;" vertex="1" parent="HxWIsVW0Vni7xR23pUae-107">
          <mxGeometry x="30" width="150" height="30" as="geometry">
            <mxRectangle width="150" height="30" as="alternateBounds" />
          </mxGeometry>
        </mxCell>
        <mxCell id="HxWIsVW0Vni7xR23pUae-110" value="Manager" style="shape=table;startSize=30;container=1;collapsible=1;childLayout=tableLayout;fixedRows=1;rowLines=0;fontStyle=1;align=center;resizeLast=1;html=1;" vertex="1" parent="1">
          <mxGeometry x="870" y="220" width="180" height="90" as="geometry" />
        </mxCell>
        <mxCell id="HxWIsVW0Vni7xR23pUae-111" value="" style="shape=tableRow;horizontal=0;startSize=0;swimlaneHead=0;swimlaneBody=0;fillColor=none;collapsible=0;dropTarget=0;points=[[0,0.5],[1,0.5]];portConstraint=eastwest;top=0;left=0;right=0;bottom=1;" vertex="1" parent="HxWIsVW0Vni7xR23pUae-110">
          <mxGeometry y="30" width="180" height="30" as="geometry" />
        </mxCell>
        <mxCell id="HxWIsVW0Vni7xR23pUae-112" value="PK" style="shape=partialRectangle;connectable=0;fillColor=none;top=0;left=0;bottom=0;right=0;fontStyle=1;overflow=hidden;whiteSpace=wrap;html=1;" vertex="1" parent="HxWIsVW0Vni7xR23pUae-111">
          <mxGeometry width="30" height="30" as="geometry">
            <mxRectangle width="30" height="30" as="alternateBounds" />
          </mxGeometry>
        </mxCell>
        <mxCell id="HxWIsVW0Vni7xR23pUae-113" value="ManagerID" style="shape=partialRectangle;connectable=0;fillColor=none;top=0;left=0;bottom=0;right=0;align=left;spacingLeft=6;fontStyle=5;overflow=hidden;whiteSpace=wrap;html=1;" vertex="1" parent="HxWIsVW0Vni7xR23pUae-111">
          <mxGeometry x="30" width="150" height="30" as="geometry">
            <mxRectangle width="150" height="30" as="alternateBounds" />
          </mxGeometry>
        </mxCell>
        <mxCell id="HxWIsVW0Vni7xR23pUae-114" value="" style="shape=tableRow;horizontal=0;startSize=0;swimlaneHead=0;swimlaneBody=0;fillColor=none;collapsible=0;dropTarget=0;points=[[0,0.5],[1,0.5]];portConstraint=eastwest;top=0;left=0;right=0;bottom=0;" vertex="1" parent="HxWIsVW0Vni7xR23pUae-110">
          <mxGeometry y="60" width="180" height="30" as="geometry" />
        </mxCell>
        <mxCell id="HxWIsVW0Vni7xR23pUae-115" value="" style="shape=partialRectangle;connectable=0;fillColor=none;top=0;left=0;bottom=0;right=0;editable=1;overflow=hidden;whiteSpace=wrap;html=1;" vertex="1" parent="HxWIsVW0Vni7xR23pUae-114">
          <mxGeometry width="30" height="30" as="geometry">
            <mxRectangle width="30" height="30" as="alternateBounds" />
          </mxGeometry>
        </mxCell>
        <mxCell id="HxWIsVW0Vni7xR23pUae-116" value="ManagerName" style="shape=partialRectangle;connectable=0;fillColor=none;top=0;left=0;bottom=0;right=0;align=left;spacingLeft=6;overflow=hidden;whiteSpace=wrap;html=1;" vertex="1" parent="HxWIsVW0Vni7xR23pUae-114">
          <mxGeometry x="30" width="150" height="30" as="geometry">
            <mxRectangle width="150" height="30" as="alternateBounds" />
          </mxGeometry>
        </mxCell>
        <mxCell id="HxWIsVW0Vni7xR23pUae-117" value="Location" style="shape=table;startSize=30;container=1;collapsible=1;childLayout=tableLayout;fixedRows=1;rowLines=0;fontStyle=1;align=center;resizeLast=1;html=1;" vertex="1" parent="1">
          <mxGeometry x="1480" y="490" width="180" height="90" as="geometry" />
        </mxCell>
        <mxCell id="HxWIsVW0Vni7xR23pUae-118" value="" style="shape=tableRow;horizontal=0;startSize=0;swimlaneHead=0;swimlaneBody=0;fillColor=none;collapsible=0;dropTarget=0;points=[[0,0.5],[1,0.5]];portConstraint=eastwest;top=0;left=0;right=0;bottom=1;" vertex="1" parent="HxWIsVW0Vni7xR23pUae-117">
          <mxGeometry y="30" width="180" height="30" as="geometry" />
        </mxCell>
        <mxCell id="HxWIsVW0Vni7xR23pUae-119" value="PK" style="shape=partialRectangle;connectable=0;fillColor=none;top=0;left=0;bottom=0;right=0;fontStyle=1;overflow=hidden;whiteSpace=wrap;html=1;" vertex="1" parent="HxWIsVW0Vni7xR23pUae-118">
          <mxGeometry width="30" height="30" as="geometry">
            <mxRectangle width="30" height="30" as="alternateBounds" />
          </mxGeometry>
        </mxCell>
        <mxCell id="HxWIsVW0Vni7xR23pUae-120" value="LocationID" style="shape=partialRectangle;connectable=0;fillColor=none;top=0;left=0;bottom=0;right=0;align=left;spacingLeft=6;fontStyle=5;overflow=hidden;whiteSpace=wrap;html=1;" vertex="1" parent="HxWIsVW0Vni7xR23pUae-118">
          <mxGeometry x="30" width="150" height="30" as="geometry">
            <mxRectangle width="150" height="30" as="alternateBounds" />
          </mxGeometry>
        </mxCell>
        <mxCell id="HxWIsVW0Vni7xR23pUae-121" value="" style="shape=tableRow;horizontal=0;startSize=0;swimlaneHead=0;swimlaneBody=0;fillColor=none;collapsible=0;dropTarget=0;points=[[0,0.5],[1,0.5]];portConstraint=eastwest;top=0;left=0;right=0;bottom=0;" vertex="1" parent="HxWIsVW0Vni7xR23pUae-117">
          <mxGeometry y="60" width="180" height="30" as="geometry" />
        </mxCell>
        <mxCell id="HxWIsVW0Vni7xR23pUae-122" value="" style="shape=partialRectangle;connectable=0;fillColor=none;top=0;left=0;bottom=0;right=0;editable=1;overflow=hidden;whiteSpace=wrap;html=1;" vertex="1" parent="HxWIsVW0Vni7xR23pUae-121">
          <mxGeometry width="30" height="30" as="geometry">
            <mxRectangle width="30" height="30" as="alternateBounds" />
          </mxGeometry>
        </mxCell>
        <mxCell id="HxWIsVW0Vni7xR23pUae-123" value="location" style="shape=partialRectangle;connectable=0;fillColor=none;top=0;left=0;bottom=0;right=0;align=left;spacingLeft=6;overflow=hidden;whiteSpace=wrap;html=1;" vertex="1" parent="HxWIsVW0Vni7xR23pUae-121">
          <mxGeometry x="30" width="150" height="30" as="geometry">
            <mxRectangle width="150" height="30" as="alternateBounds" />
          </mxGeometry>
        </mxCell>
        <mxCell id="HxWIsVW0Vni7xR23pUae-124" value="ProjectTypeID" style="shape=partialRectangle;connectable=0;fillColor=none;top=0;left=0;bottom=0;right=0;align=left;spacingLeft=6;overflow=hidden;whiteSpace=wrap;html=1;" vertex="1" parent="1">
          <mxGeometry x="1208" y="248" width="160" height="30" as="geometry">
            <mxRectangle width="160" height="30" as="alternateBounds" />
          </mxGeometry>
        </mxCell>
        <mxCell id="HxWIsVW0Vni7xR23pUae-125" style="edgeStyle=orthogonalEdgeStyle;rounded=0;orthogonalLoop=1;jettySize=auto;html=1;exitX=1;exitY=0.5;exitDx=0;exitDy=0;" edge="1" parent="1" source="HxWIsVW0Vni7xR23pUae-111" target="HxWIsVW0Vni7xR23pUae-14">
          <mxGeometry relative="1" as="geometry" />
        </mxCell>
        <mxCell id="HxWIsVW0Vni7xR23pUae-126" style="edgeStyle=orthogonalEdgeStyle;rounded=0;orthogonalLoop=1;jettySize=auto;html=1;exitX=1;exitY=0.5;exitDx=0;exitDy=0;entryX=0;entryY=0.5;entryDx=0;entryDy=0;" edge="1" parent="1" source="HxWIsVW0Vni7xR23pUae-87" target="HxWIsVW0Vni7xR23pUae-8">
          <mxGeometry relative="1" as="geometry" />
        </mxCell>
        <mxCell id="HxWIsVW0Vni7xR23pUae-127" style="edgeStyle=orthogonalEdgeStyle;rounded=0;orthogonalLoop=1;jettySize=auto;html=1;exitX=1;exitY=0.5;exitDx=0;exitDy=0;entryX=0;entryY=0.5;entryDx=0;entryDy=0;" edge="1" parent="1" source="HxWIsVW0Vni7xR23pUae-101" target="HxWIsVW0Vni7xR23pUae-11">
          <mxGeometry relative="1" as="geometry" />
        </mxCell>
        <mxCell id="HxWIsVW0Vni7xR23pUae-128" style="edgeStyle=orthogonalEdgeStyle;rounded=0;orthogonalLoop=1;jettySize=auto;html=1;exitX=0;exitY=0.5;exitDx=0;exitDy=0;entryX=1;entryY=0.5;entryDx=0;entryDy=0;" edge="1" parent="1" source="HxWIsVW0Vni7xR23pUae-118" target="HxWIsVW0Vni7xR23pUae-17">
          <mxGeometry relative="1" as="geometry" />
        </mxCell>
        <mxCell id="HxWIsVW0Vni7xR23pUae-129" style="edgeStyle=orthogonalEdgeStyle;rounded=0;orthogonalLoop=1;jettySize=auto;html=1;exitX=0;exitY=0.5;exitDx=0;exitDy=0;" edge="1" parent="1" source="HxWIsVW0Vni7xR23pUae-94" target="HxWIsVW0Vni7xR23pUae-5">
          <mxGeometry relative="1" as="geometry" />
        </mxCell>
      </root>
    </mxGraphModel>
  </diagram>
</mxfile>
